<svg width="34" height="48" viewBox="0 0 34 48" fill="none" xmlns="http://www.w3.org/2000/svg">
<path fill-rule="evenodd" clip-rule="evenodd" d="M5.99463 41.4717L6.09047 41.4054C6.16384 41.5066 6.23952 41.6077 6.3163 41.7065L6.3237 41.716L6.32665 41.7276C6.3296 41.7393 6.32958 41.7488 6.32957 41.7536C6.32957 41.7539 6.32957 41.7541 6.32957 41.7543V41.9286L6.22414 41.7888C6.14529 41.6843 6.06878 41.5786 5.99463 41.4717Z" fill="black"/>
<path d="M11.4392 24.6269C11.4427 24.7216 11.4427 24.8175 11.4392 24.9134C11.4041 26.6665 10.6587 28.3886 9.27927 29.6336C9.27927 29.6347 9.27926 29.6347 9.27809 29.637C9.09557 29.8033 8.90134 29.9604 8.69541 30.1071C8.63808 30.1487 8.53278 30.2156 8.3912 30.3069C8.27069 30.3831 8.12559 30.479 7.95828 30.5933C7.95477 30.5945 7.9536 30.5968 7.95009 30.5991C7.20711 31.1858 5.96335 32.261 5.77731 32.4308C5.7621 32.4447 5.75391 32.4539 5.75391 32.4539C5.75274 32.4551 5.75274 32.4551 5.7504 32.4574C5.72934 32.4782 5.70712 32.5013 5.68606 32.5244C3.99768 34.3087 2.30344 37.1233 2.63105 41.169C2.55383 41.0697 2.47778 40.968 2.40407 40.8653C0.140031 37.6499 -0.487107 33.7751 0.363516 30.2272C0.367026 30.2145 0.369361 30.2041 0.372872 30.1925C0.403293 30.069 0.434878 29.9442 0.468809 29.8218C0.473489 29.8033 0.47817 29.7837 0.48402 29.7652C1.17903 27.266 2.94111 25.2171 5.23441 23.9525C5.44735 23.8347 5.65563 23.7042 5.85805 23.5586C6.72271 22.9361 7.3721 22.1346 7.79331 21.2407C8.09401 20.6032 8.27887 19.9171 8.34206 19.2184C8.88847 19.5614 9.3951 19.9888 9.83387 20.4958C9.94853 20.6251 10.0562 20.7626 10.1615 20.9046C10.4879 21.3469 10.7512 21.8147 10.9478 22.3009C10.9524 22.3102 10.9571 22.3194 10.9606 22.3286C10.9653 22.339 10.97 22.3494 10.9747 22.361C11.2496 23.0458 11.4006 23.7619 11.4345 24.4791C11.4357 24.4803 11.4357 24.4803 11.4345 24.4826C11.4357 24.5322 11.4368 24.5796 11.4392 24.6269Z" fill="#786DC2"/>
<path d="M24.3541 23.5236H24.2921C22.6458 23.5236 21.0838 23.1702 19.6786 22.5373C19.2925 22.3629 18.9181 22.1689 18.5589 21.9529C18.4629 21.8963 18.3682 21.8374 18.2746 21.7785C15.1693 19.8036 13.3533 16.3526 13.3533 12.7065V1.14222C14.8428 0.409998 16.5195 0 18.2968 0C18.7648 0 19.227 0.028871 19.6798 0.0843076V14.38C19.6786 14.4412 19.6786 14.5036 19.6786 14.5648C19.6786 14.5983 19.6786 14.6318 19.6798 14.6653C19.7008 17.175 20.5784 19.4837 22.0351 21.3211C22.4306 21.8201 22.8682 22.2844 23.3432 22.7082C23.6439 22.9796 23.9622 23.2326 24.2933 23.467C24.312 23.4855 24.3342 23.504 24.3541 23.5236Z" fill="#9A8DE5"/>
<path d="M34 30.7748C34 40.288 26.1876 47.9995 16.5488 47.9995C10.8658 47.9995 5.81826 45.3189 2.63105 41.1669C2.30344 37.12 3.99768 34.3055 5.68606 32.5222C5.70712 32.4991 5.72934 32.4761 5.7504 32.4553C5.75157 32.4541 5.75157 32.4541 5.75391 32.4518C6.188 38.1202 10.9852 42.5851 16.8389 42.5851C22.9793 42.5851 27.9579 37.6721 27.9579 31.6099C27.9579 31.223 27.938 30.8395 27.897 30.463C27.6092 27.7247 26.3011 25.2855 24.3541 23.523C24.3342 23.5034 24.312 23.4849 24.2921 23.4665C23.961 23.232 23.6439 22.9791 23.342 22.7077C22.8658 22.2838 22.4294 21.8184 22.0339 21.3206C20.5772 19.4831 19.6997 17.1744 19.6786 14.6647V14.3795C19.6821 14.1947 19.6892 14.0122 19.702 13.8309C22.5768 14.3483 25.2036 15.5598 27.4009 17.2841C28.8272 18.4021 30.0722 19.7372 31.0854 21.2374C31.929 22.4859 32.61 23.851 33.1014 25.3028C33.6607 26.9462 33.9743 28.7017 33.9988 30.5254C34 30.6085 34 30.6905 34 30.7748Z" fill="#574FA0"/>
</svg>
