<svg width="30" height="30" viewBox="0 0 30 30" fill="none" xmlns="http://www.w3.org/2000/svg">
<path d="M16.7625 15.0002L22.1375 9.63773C22.3729 9.40235 22.5051 9.08311 22.5051 8.75023C22.5051 8.41735 22.3729 8.09811 22.1375 7.86273C21.9021 7.62735 21.5829 7.49512 21.25 7.49512C20.9171 7.49512 20.5979 7.62735 20.3625 7.86273L15 13.2377L9.63748 7.86273C9.40211 7.62735 9.08286 7.49512 8.74998 7.49512C8.41711 7.49512 8.09786 7.62735 7.86248 7.86273C7.62711 8.09811 7.49487 8.41735 7.49487 8.75023C7.49487 9.08311 7.62711 9.40235 7.86248 9.63773L13.2375 15.0002L7.86248 20.3627C7.74532 20.4789 7.65233 20.6172 7.58887 20.7695C7.52541 20.9218 7.49274 21.0852 7.49274 21.2502C7.49274 21.4152 7.52541 21.5786 7.58887 21.731C7.65233 21.8833 7.74532 22.0215 7.86248 22.1377C7.97869 22.2549 8.11694 22.3479 8.26926 22.4113C8.42159 22.4748 8.58497 22.5075 8.74998 22.5075C8.915 22.5075 9.07838 22.4748 9.23071 22.4113C9.38303 22.3479 9.52128 22.2549 9.63748 22.1377L15 16.7627L20.3625 22.1377C20.4787 22.2549 20.6169 22.3479 20.7693 22.4113C20.9216 22.4748 21.085 22.5075 21.25 22.5075C21.415 22.5075 21.5784 22.4748 21.7307 22.4113C21.883 22.3479 22.0213 22.2549 22.1375 22.1377C22.2546 22.0215 22.3476 21.8833 22.4111 21.731C22.4746 21.5786 22.5072 21.4152 22.5072 21.2502C22.5072 21.0852 22.4746 20.9218 22.4111 20.7695C22.3476 20.6172 22.2546 20.4789 22.1375 20.3627L16.7625 15.0002Z" fill="black"/>
</svg>
