<svg width="16" height="16" viewBox="0 0 16 16" fill="none" xmlns="http://www.w3.org/2000/svg">
<path d="M10.7826 8.5325C11.5179 7.954 12.0546 7.16069 12.318 6.26296C12.5815 5.36522 12.5586 4.4077 12.2525 3.5236C11.9464 2.6395 11.3723 1.8728 10.6102 1.33014C9.84803 0.787491 8.93571 0.49588 8.00012 0.49588C7.06453 0.49588 6.15221 0.787491 5.39007 1.33014C4.62793 1.8728 4.05388 2.6395 3.74778 3.5236C3.44168 4.4077 3.41875 5.36522 3.68219 6.26296C3.94563 7.16069 4.48233 7.954 5.21762 8.5325C3.95768 9.03728 2.85834 9.87451 2.03679 10.9549C1.21524 12.0354 0.702292 13.3185 0.55262 14.6675C0.541786 14.766 0.550457 14.8657 0.578139 14.9608C0.60582 15.0559 0.65197 15.1447 0.713953 15.222C0.839134 15.3781 1.02121 15.4781 1.22012 15.5C1.41903 15.5219 1.61849 15.4639 1.77461 15.3387C1.93074 15.2135 2.03074 15.0314 2.05262 14.8325C2.21731 13.3664 2.91638 12.0124 4.01628 11.0291C5.11618 10.0458 6.53979 9.50227 8.01512 9.50227C9.49045 9.50227 10.9141 10.0458 12.014 11.0291C13.1139 12.0124 13.8129 13.3664 13.9776 14.8325C13.998 15.0168 14.0859 15.187 14.2245 15.3103C14.363 15.4335 14.5422 15.5011 14.7276 15.5H14.8101C15.0067 15.4774 15.1864 15.378 15.31 15.2234C15.4337 15.0689 15.4912 14.8718 15.4701 14.675C15.3197 13.3222 14.804 12.0357 13.9783 10.9537C13.1525 9.87157 12.0478 9.03461 10.7826 8.5325ZM8.00012 8C7.40678 8 6.82676 7.82406 6.33341 7.49441C5.84006 7.16477 5.45554 6.69623 5.22848 6.14805C5.00142 5.59987 4.94201 4.99667 5.05776 4.41473C5.17352 3.83279 5.45924 3.29824 5.8788 2.87868C6.29836 2.45912 6.83291 2.1734 7.41485 2.05765C7.99679 1.94189 8.59999 2.0013 9.14817 2.22836C9.69635 2.45543 10.1649 2.83994 10.4945 3.33329C10.8242 3.82664 11.0001 4.40666 11.0001 5C11.0001 5.79565 10.6841 6.55871 10.1214 7.12132C9.55883 7.68393 8.79577 8 8.00012 8Z" fill="#F9FAFB"/>
</svg>
