<svg width="733" height="467" viewBox="0 0 733 467" fill="none" xmlns="http://www.w3.org/2000/svg">
<path d="M334.416 352.936C333.144 355.438 331.063 357.437 328.511 358.608C326.332 359.703 324.024 360.52 321.641 361.039C317.715 361.696 316.328 359.216 313.822 356.785C312.394 355.406 310.749 354.267 308.955 353.414C307.88 352.886 306.701 352.604 305.504 352.586C304.306 352.567 303.119 352.814 302.028 353.309C301.29 353.638 300.662 354.173 300.222 354.85C299.782 355.527 299.547 356.318 299.546 357.125C299.709 360.099 303.813 362.449 306.133 363.681C309.161 365.11 312.309 366.271 315.542 367.149C323.466 369.58 310.269 374.645 307.495 374.961C301.562 375.764 295.539 375.621 289.651 374.539C291.342 378.313 292.638 382.25 293.52 386.289C294.436 390.154 295.507 394.806 294.753 398.695C293.836 403.266 290.746 406.661 286.933 408.962L272.114 347.199C277.579 344.598 283.522 343.154 289.571 342.956C295.62 342.758 301.645 343.811 307.268 346.048C309.143 346.739 311.178 346.877 313.128 346.446C315.08 346.015 316.866 345.034 318.275 343.617L319.792 342.15C321.904 341.692 324.105 341.866 326.119 342.653C329.712 344.006 336.363 348.358 334.416 352.936Z" fill="#574FA0"/>
<path d="M349.634 422.001H288.444C287.825 427.767 285.094 433.101 280.775 436.977C276.457 440.854 270.856 442.997 265.051 442.996H59.335C59.3479 448.554 61.5639 453.881 65.4978 457.811C69.4318 461.741 74.7633 463.955 80.3267 463.968H349.618C355.182 463.948 360.512 461.734 364.449 457.805C368.385 453.877 370.608 448.554 370.634 442.996V428.896C370.634 427.068 369.907 425.313 368.612 424.02C367.318 422.727 365.562 422.001 363.732 422.001H349.634Z" stroke="black" stroke-width="4.83" stroke-miterlimit="10"/>
<path d="M255.137 284.909C256.944 287.396 258.243 290.216 258.958 293.206L287.947 413.946C288.587 416.566 288.755 419.281 288.442 421.96C287.823 427.727 285.092 433.062 280.773 436.937C276.455 440.813 270.854 442.957 265.049 442.956H55.5128C50.2219 442.952 45.0867 441.171 40.9331 437.898C36.7795 434.624 33.8494 430.049 32.6147 424.91L3.65772 304.17C2.82137 300.712 2.78212 297.108 3.54295 293.632C4.30378 290.156 5.84474 286.898 8.04977 284.104C10.2548 281.309 13.0662 279.052 16.2719 277.501C19.4776 275.95 22.994 275.147 26.5556 275.152H236.06C239.501 275.147 242.902 275.901 246.018 277.359C249.135 278.816 251.891 280.944 254.091 283.588L255.137 284.909Z" stroke="black" stroke-width="4.83" stroke-miterlimit="10"/>
<path d="M153.481 392.158C165.414 388.399 171.66 374.492 167.431 361.094C163.202 347.696 150.101 339.881 138.169 343.64C126.236 347.399 119.991 361.307 124.219 374.705C128.447 388.103 141.549 395.917 153.481 392.158Z" fill="#BCB9D9"/>
<path d="M556.055 298.368C537.57 301.456 523.359 309.899 513.821 327.378C505.279 343.017 504.282 362.101 513.391 377.619L476.201 363.373C454.666 353.519 447.09 331.624 455.72 309.137C465.981 282.348 498.539 279.236 522.637 286.059C527.545 287.437 532.444 289.009 537.294 290.743C543.632 293.012 549.885 295.554 556.055 298.368Z" fill="#353642"/>
<path d="M122.941 275.168C137.695 256.121 158.04 242.16 181.131 235.235C178.055 226.982 175.614 218.505 173.831 209.88C154.672 116.789 214.589 25.7806 307.746 6.58387C400.903 -12.6129 492.032 47.222 511.24 140.289C513.387 150.718 514.582 161.32 514.809 171.964C521.464 169.606 528.275 167.71 535.192 166.292C616.604 149.478 696.256 201.809 713.062 283.158C717.806 306.031 717.142 329.695 711.126 352.267C705.109 374.838 693.905 395.697 678.403 413.184" stroke="#9F9F9F" stroke-width="4.83" stroke-miterlimit="10"/>
<path d="M326.005 422.009H331.756C333.41 422.048 335.05 421.702 336.547 421C338.043 420.296 339.356 419.254 340.378 417.957C340.405 417.926 340.425 417.891 340.435 417.852C342.498 415.033 343.438 411.55 343.071 408.079L342.601 404.424L342.212 401.475L343.623 400.664L365.734 387.634L367.226 386.775C378.022 380.43 378.801 368.6 374.567 357.393C374.494 357.19 374.437 357.004 374.364 356.817C374.178 356.347 373.991 355.91 373.813 355.464C372.73 352.974 371.452 350.574 369.992 348.284C364.404 339.557 356.301 332.459 348.587 330.603C346.427 330.111 344.217 329.866 342.001 329.874C337.377 329.874 332.267 330.757 329.582 333.423C358.264 305.232 391.771 278.774 432.075 270.566C464.019 263.987 497.051 264.863 528.599 273.126C565.456 282.922 598.679 303.287 625 330.757C626.387 332.2 627.742 333.658 629.056 335.149C662.044 371.371 683.084 417.122 696.378 463.943" stroke="black" stroke-width="4.83" stroke-miterlimit="10"/>
<path d="M336.12 463.968H733" stroke="black" stroke-width="4.83" stroke-miterlimit="10"/>
<path d="M436.033 463.959H481.066" stroke="black" stroke-width="3.22" stroke-miterlimit="10"/>
<path d="M473.678 362.992C452.784 353.487 441.688 327.273 450.042 305.58C460.003 279.722 491.58 276.716 514.932 283.296C519.701 284.631 524.441 286.138 529.151 287.818C581.655 306.455 629.365 345.149 655.418 394.174C657.616 398.323 659.368 402.585 661.144 406.928C663.539 412.764 664.527 419.079 664.027 425.366C663.527 431.653 661.555 437.734 658.27 443.119C654.984 448.503 650.476 453.04 645.111 456.364C639.746 459.687 633.674 461.704 627.385 462.25L481.068 463.959H436.034C432.056 463.96 428.177 462.716 424.942 460.403C421.706 458.089 419.278 454.822 417.995 451.059C413.055 436.473 419.439 425.469 427.51 417.973C435.929 410.162 446.912 405.697 458.332 404.546L540.531 396.248C541.318 396.168 542.061 395.849 542.662 395.334C543.264 394.82 543.693 394.134 543.892 393.369C544.092 392.605 544.054 391.797 543.783 391.055C543.511 390.312 543.019 389.67 542.372 389.214L473.678 362.992Z" stroke="black" stroke-width="4.83" stroke-miterlimit="10"/>
<path d="M449.173 420.477C441.671 424.788 433.957 431.538 431.377 440.087C428.409 449.933 435.376 458.879 443.293 464" stroke="black" stroke-width="4.83" stroke-miterlimit="10"/>
<path d="M457.221 431.773C450.221 438.426 444.154 446.861 448.201 456.893C449.358 459.646 451.161 462.081 453.457 463.992" stroke="black" stroke-width="4.83" stroke-miterlimit="10"/>
<path d="M470.953 444.787C470.953 444.787 454.836 456.756 465.072 463.935" stroke="black" stroke-width="4.83" stroke-miterlimit="10"/>
<path d="M429.585 462.817L429.869 463.968H403.865C395.364 463.968 383.587 462.663 384.698 453.182C385.809 443.701 416.251 441.116 416.251 441.116" stroke="black" stroke-width="4.83" stroke-miterlimit="10"/>
<path d="M382.939 164.688L327.596 172.961L337.24 179.752L355.28 194.184C358.102 196.169 357.397 200.853 358.962 203.697C359.557 207.99 358.882 212.363 357.019 216.278C355.158 220.191 352.191 223.477 348.484 225.728C344.777 227.98 340.493 229.099 336.157 228.948C331.822 228.796 327.625 227.382 324.084 224.879L280.567 194.297C275.764 190.984 271.909 186.476 269.382 181.218C265.821 163.513 276.747 143.822 297.771 140.702L358.265 131.626L349.342 124.706L321.87 103.346C319.517 101.526 317.553 99.2518 316.094 96.6604C315.484 92.2732 316.198 87.8026 318.147 83.8239C320.096 79.8452 323.19 76.5382 327.032 74.3276C330.875 72.117 335.29 71.1033 339.713 71.4169C344.136 71.7297 348.365 73.356 351.857 76.086L400.864 114.172C404.872 117.247 408.113 121.207 410.33 125.743C413.672 142.857 402.982 161.681 382.939 164.688Z" fill="#574FA0"/>
<path d="M342.22 401.467C342.22 401.467 340.532 386.638 334.814 381.411" stroke="black" stroke-width="4.83" stroke-miterlimit="10"/>
<path d="M271.547 348.236C277.068 345.526 283.098 344.004 289.245 343.766C295.392 343.529 301.522 344.582 307.236 346.858C309.113 347.55 311.151 347.689 313.105 347.258C315.059 346.827 316.848 345.845 318.259 344.427L329.558 333.375" stroke="black" stroke-width="4.83" stroke-miterlimit="10"/>
<path d="M307.464 411.231L316.898 415.469C317.108 415.556 317.333 415.597 317.56 415.592C317.787 415.585 318.011 415.532 318.216 415.434C318.42 415.336 318.603 415.196 318.75 415.024C318.897 414.851 319.007 414.65 319.071 414.432L320.556 411.077" stroke="black" stroke-width="4.83" stroke-miterlimit="10"/>
<path d="M309.006 392.513C309.796 394.326 310.071 396.321 309.799 398.28C309.527 400.239 308.719 402.085 307.464 403.614" stroke="black" stroke-width="3.22" stroke-miterlimit="10"/>
<path d="M330.402 422.001C331.886 419.805 331.878 414.497 331.497 412.366C331.253 411.012 328.974 410.526 328.731 411.888C328.066 415.688 323.775 421.531 319.809 422.001" stroke="black" stroke-width="4.83" stroke-miterlimit="10"/>
<path d="M311.355 407.674C318.044 407.674 323.465 402.257 323.465 395.576C323.465 388.894 318.044 383.477 311.355 383.477C304.667 383.477 299.245 388.894 299.245 395.576C299.245 402.257 304.667 407.674 311.355 407.674Z" stroke="black" stroke-width="4.83" stroke-miterlimit="10"/>
<path d="M307.302 406.969L305.144 413.03C303.646 412.497 302.058 412.264 300.469 412.344C298.881 412.424 297.324 412.816 295.887 413.498C294.45 414.18 293.162 415.138 292.097 416.317C291.032 417.497 290.209 418.874 289.676 420.372" stroke="black" stroke-width="4.83" stroke-miterlimit="10"/>
<path opacity="0.53" d="M311.358 405.818C317.02 405.818 321.61 401.233 321.61 395.576C321.61 389.919 317.02 385.333 311.358 385.333C305.695 385.333 301.105 389.919 301.105 395.576C301.105 401.233 305.695 405.818 311.358 405.818Z" fill="white"/>
<path d="M286.885 409.756C290.698 407.455 293.78 404.084 294.696 399.498C295.459 395.6 294.388 390.957 293.472 387.091C292.591 383.052 291.294 379.114 289.603 375.342C295.491 376.421 301.515 376.56 307.447 375.755C310.213 375.447 323.418 370.407 315.493 367.951C312.262 367.075 309.116 365.912 306.093 364.475C303.757 363.268 299.66 360.918 299.514 357.936C299.505 357.13 299.729 356.338 300.161 355.658C300.593 354.978 301.214 354.437 301.948 354.103C303.039 353.611 304.227 353.366 305.425 353.387C306.622 353.408 307.801 353.694 308.875 354.224C310.674 355.07 312.319 356.209 313.741 357.595C316.256 360.026 317.627 362.457 321.569 361.833C323.949 361.321 326.252 360.504 328.423 359.402C330.98 358.233 333.067 356.234 334.344 353.73C336.307 349.168 329.639 344.816 326.022 343.512C324.012 342.723 321.814 342.543 319.703 342.993" stroke="black" stroke-width="4.83" stroke-miterlimit="10"/>
<path d="M382.939 164.688L327.597 172.961L337.241 179.752L349.716 188.503C352.165 190.161 354.258 192.288 355.875 194.762C357.492 197.236 358.598 200.008 359.131 202.914C359.664 205.82 359.612 208.803 358.978 211.689C358.345 214.575 357.141 217.306 355.439 219.722C353.737 222.139 351.57 224.192 349.065 225.762C346.56 227.333 343.766 228.389 340.849 228.869C337.93 229.349 334.945 229.244 332.068 228.559C329.191 227.873 326.481 226.623 324.093 224.879L280.576 194.297C275.772 190.984 271.917 186.476 269.391 181.218C260.136 162.022 270.956 136.456 295.136 132.85L343.13 125.67L349.343 124.706L321.87 103.346C319.563 101.552 317.633 99.3223 316.189 96.7835C314.745 94.2448 313.816 91.4459 313.454 88.5481C313.092 85.6504 313.306 82.7105 314.082 79.8946C314.858 77.0795 316.181 74.4443 317.977 72.1397C319.772 69.836 322.004 67.9074 324.545 66.4642C327.087 65.0218 329.888 64.0931 332.789 63.7325C335.689 63.3711 338.632 63.5842 341.451 64.3597C344.268 65.1344 346.906 66.4569 349.213 68.2501L398.221 106.336C404.493 111.102 408.792 118.007 410.298 125.735C413.673 142.857 402.982 161.681 382.939 164.688Z" stroke="black" stroke-width="4.83" stroke-miterlimit="10"/>
<path d="M261.464 258.678L260.929 244.554L254.659 250.972C253.595 252.058 252.144 252.678 250.624 252.696C249.103 252.714 247.637 252.129 246.548 251.069C245.461 250.007 244.84 248.556 244.822 247.038C244.804 245.518 245.389 244.054 246.45 242.966L257.684 231.508C258.842 230.324 260.321 229.505 261.94 229.154C263.559 228.802 265.245 228.932 266.791 229.528C268.336 230.124 269.672 231.159 270.635 232.507C271.597 233.854 272.142 235.453 272.203 237.107L272.731 251.515L277.354 246.304C277.854 245.739 278.46 245.278 279.139 244.948C279.817 244.617 280.555 244.424 281.308 244.378C282.062 244.333 282.817 244.437 283.531 244.684C284.244 244.932 284.902 245.317 285.465 245.818C286.031 246.317 286.492 246.923 286.823 247.601C287.154 248.278 287.348 249.015 287.394 249.768C287.44 250.52 287.336 251.274 287.091 251.987C286.845 252.7 286.46 253.358 285.96 253.922L276.851 264.188C275.689 265.513 274.154 266.458 272.448 266.9C270.74 267.342 268.94 267.26 267.28 266.666C265.62 266.072 264.177 264.991 263.14 263.567C262.103 262.142 261.519 260.439 261.464 258.678Z" fill="#BCB9D9"/>
<path d="M308.462 284.155L315.138 282.664L311.528 280.233C310.917 279.82 310.493 279.184 310.351 278.462C310.208 277.739 310.357 276.988 310.766 276.376C311.178 275.764 311.816 275.341 312.54 275.2C313.264 275.059 314.014 275.21 314.627 275.622L321.067 279.925C321.735 280.37 322.256 281.001 322.568 281.74C322.879 282.479 322.967 283.294 322.819 284.081C322.671 284.87 322.295 285.597 321.737 286.173C321.179 286.75 320.464 287.149 319.68 287.323L312.842 288.863L315.738 290.605C316.05 290.793 316.323 291.041 316.539 291.335C316.755 291.627 316.912 291.96 316.999 292.314C317.086 292.668 317.103 293.035 317.048 293.396C316.993 293.756 316.868 294.102 316.679 294.414C316.298 295.043 315.684 295.497 314.969 295.675C314.254 295.852 313.498 295.739 312.867 295.362L307.189 291.934C306.459 291.498 305.876 290.852 305.518 290.082C305.159 289.311 305.041 288.451 305.178 287.612C305.315 286.773 305.702 285.994 306.288 285.379C306.873 284.762 307.631 284.336 308.462 284.155Z" fill="#BCB9D9"/>
<path d="M291.583 323.108L292.127 318.651L289.831 320.353C289.639 320.496 289.42 320.6 289.187 320.658C288.955 320.717 288.713 320.729 288.476 320.695C288.239 320.66 288.01 320.579 287.804 320.456C287.599 320.334 287.419 320.172 287.276 319.98C286.988 319.591 286.866 319.105 286.936 318.626C287.006 318.148 287.262 317.717 287.649 317.427L291.705 314.388C292.127 314.074 292.633 313.89 293.158 313.859C293.685 313.829 294.208 313.954 294.664 314.218C295.12 314.482 295.488 314.874 295.723 315.345C295.958 315.815 296.05 316.345 295.987 316.868L295.436 321.422L297.147 320.012C297.332 319.86 297.546 319.746 297.775 319.675C298.005 319.605 298.246 319.582 298.485 319.605C298.723 319.628 298.955 319.699 299.167 319.811C299.379 319.925 299.566 320.078 299.719 320.263C299.871 320.448 299.986 320.661 300.055 320.891C300.125 321.12 300.149 321.361 300.126 321.6C300.102 321.839 300.033 322.07 299.919 322.281C299.806 322.493 299.652 322.68 299.467 322.832L296.093 325.603C295.661 325.946 295.137 326.154 294.587 326.2C294.037 326.246 293.486 326.128 293.003 325.86C292.52 325.594 292.127 325.189 291.875 324.699C291.622 324.209 291.521 323.655 291.583 323.108Z" fill="#BCB9D9"/>
<path d="M556.055 298.927L555.714 299.503C555.456 299.341 555.184 299.2 554.903 299.081L556.055 298.927Z" fill="#353642"/>
<path d="M694.876 463.96H463.521H479.549L625.874 462.266C652.925 459.916 671.987 433.41 661.71 408.314C659.933 403.979 661.791 402.771 659.593 398.59C636.589 355.318 596.707 320.069 551.511 299.592C552.63 299.381 553.758 299.227 554.91 299.073C546.493 294.863 537.825 291.174 528.954 288.028C524.249 286.351 519.488 284.836 514.735 283.507C491.367 276.927 459.79 279.933 449.845 305.783C441.483 327.483 452.587 353.698 473.473 363.203L510.988 377.53C510.671 377.06 510.387 376.59 510.095 376.095L542.719 388.55C543.367 389.003 543.86 389.643 544.133 390.384C544.406 391.125 544.446 391.932 544.247 392.696C544.049 393.461 543.621 394.146 543.022 394.661C542.422 395.175 541.68 395.495 540.894 395.576L461.663 404.222C450.243 405.373 435.943 410.145 427.523 417.997C421.383 423.67 416.208 431.392 416.257 441.165C411.079 441.555 405.931 442.277 400.846 443.328C393.083 444.998 385.183 447.874 384.623 452.599C383.52 462.08 397.009 464.008 405.51 464.008L351.716 463.797C357.491 463.797 358.205 463.749 362.034 459.94C365.862 456.132 370.145 453.198 370.145 447.429L370.615 428.937C370.615 425.128 371.524 422.049 367.712 422.049H333.645C335.032 422.087 336.401 421.725 337.587 421.006C338.774 420.288 339.728 419.244 340.336 417.997C340.363 417.968 340.38 417.932 340.385 417.892C342.088 414.732 342.478 410.186 342.161 405.883L342.559 404.473L343.581 400.713L365.221 387.991C365.384 387.897 365.541 387.794 365.692 387.683C376.983 380.787 378.394 368.462 374.525 357.441C374.444 357.231 374.395 357.044 374.314 356.866C374.136 356.396 373.973 355.95 373.771 355.505C372.738 352.992 371.458 350.587 369.95 348.325C364.362 339.606 356.25 332.499 348.545 330.644C346.384 330.156 344.174 329.911 341.958 329.914C368.774 304.794 399.67 282.469 436.162 275.047C468.091 268.457 501.111 269.317 532.653 277.559C569.51 287.356 602.701 307.695 629.022 335.165C664.451 372.092 681.022 415.234 694.876 463.96Z" fill="#353642"/>
</svg>
