<svg width="76" height="108" viewBox="0 0 76 108" fill="none" xmlns="http://www.w3.org/2000/svg">
<path fill-rule="evenodd" clip-rule="evenodd" d="M13.3999 93.3113L13.6141 93.1622C13.7781 93.3899 13.9473 93.6174 14.1189 93.8396L14.1355 93.861L14.1421 93.8872C14.1487 93.9134 14.1486 93.9348 14.1486 93.9456C14.1486 93.9462 14.1486 93.9468 14.1486 93.9473V94.3394L13.9129 94.0249C13.7367 93.7896 13.5657 93.5518 13.3999 93.3113Z" fill="black"/>
<path d="M25.5699 55.4107C25.5777 55.6237 25.5777 55.8394 25.5699 56.0551C25.4914 59.9998 23.8254 63.8743 20.7419 66.6756C20.7419 66.6782 20.7419 66.6781 20.7393 66.6833C20.3313 67.0575 19.8971 67.4109 19.4368 67.741C19.3087 67.8345 19.0733 67.9852 18.7568 68.1905C18.4874 68.362 18.1631 68.5777 17.7891 68.835C17.7812 68.8376 17.7786 68.8428 17.7708 68.848C16.11 70.1681 13.3298 72.5873 12.914 72.9693C12.88 73.0005 12.8617 73.0213 12.8617 73.0213C12.8591 73.0239 12.8591 73.0239 12.8538 73.0291C12.8068 73.0759 12.7571 73.1278 12.71 73.1798C8.93599 77.1946 5.14887 83.5274 5.88118 92.6303C5.70856 92.4068 5.53858 92.1781 5.37381 91.9468C0.313009 84.7124 -1.08883 75.9941 0.812566 68.0112C0.820412 67.9826 0.825631 67.9592 0.833478 67.9333C0.901478 67.6552 0.97208 67.3746 1.04793 67.0991C1.05839 67.0575 1.06885 67.0134 1.08193 66.9718C2.63547 61.3484 6.57426 56.7385 11.7004 53.8931C12.1764 53.628 12.642 53.3344 13.0945 53.007C15.0272 51.6063 16.4788 49.8029 17.4203 47.7916C18.0925 46.3572 18.5057 44.8136 18.647 43.2415C19.8683 44.0132 21.0008 44.9747 21.9816 46.1155C22.2379 46.4065 22.4785 46.7158 22.7139 47.0354C23.4436 48.0307 24.0321 49.0831 24.4714 50.1771C24.4819 50.1979 24.4924 50.2187 24.5002 50.2395C24.5107 50.2629 24.5211 50.2862 24.5316 50.3122C25.1462 51.8532 25.4836 53.4643 25.5595 55.078C25.5621 55.0806 25.5621 55.0806 25.5595 55.0858C25.5621 55.1976 25.5647 55.3041 25.5699 55.4107Z" fill="#786DC2"/>
<path d="M54.4386 52.9281H54.3C50.6201 52.9281 47.1286 52.1329 43.9875 50.7089C43.1244 50.3165 42.2875 49.88 41.4845 49.394C41.2701 49.2667 41.0583 49.1342 40.849 49.0016C33.9077 44.558 29.8486 36.7934 29.8486 28.5897V2.57C33.178 0.922496 36.9259 0 40.8987 0C41.9449 0 42.978 0.0649597 43.9901 0.189692V32.3551C43.9875 32.4928 43.9875 32.6331 43.9875 32.7708C43.9875 32.8462 43.9875 32.9215 43.9901 32.9969C44.0372 38.6436 45.9987 43.8382 49.2549 47.9726C50.1389 49.0952 51.1171 50.1398 52.1789 51.0935C52.8511 51.7042 53.5625 52.2733 54.3026 52.8008C54.3445 52.8424 54.3942 52.8839 54.4386 52.9281Z" fill="#9A8DE5"/>
<path d="M76 69.2434C76 90.648 58.537 107.999 36.9913 107.999C24.2883 107.999 13.0055 101.967 5.88112 92.6255C5.14881 83.52 8.93593 77.1873 12.71 73.175C12.757 73.1231 12.8067 73.0711 12.8538 73.0243C12.8564 73.0217 12.8564 73.0217 12.8616 73.0165C13.8319 85.7704 24.5551 95.8166 37.6399 95.8166C51.3655 95.8166 62.4941 84.7622 62.4941 71.1222C62.4941 70.2516 62.4496 69.3889 62.358 68.5418C61.7147 62.3805 58.7906 56.8923 54.4386 52.9268C54.3941 52.8827 54.3445 52.8411 54.3 52.7995C53.5598 52.272 52.8511 51.7029 52.1763 51.0922C51.1118 50.1385 50.1363 49.0913 49.2523 47.9713C45.9961 43.837 44.0346 38.6424 43.9875 32.9956V32.3538C43.9953 31.938 44.011 31.5274 44.0398 31.1194C50.4658 32.2836 56.3374 35.0095 61.2491 38.8892C64.4373 41.4047 67.2201 44.4087 69.485 47.7842C71.3707 50.5933 72.8929 53.6648 73.9913 56.9312C75.2415 60.629 75.9424 64.5789 75.9974 68.6821C76 68.8692 76 69.0537 76 69.2434Z" fill="#574FA0"/>
</svg>
