<svg width="10" height="10" viewBox="0 0 10 10" fill="none" xmlns="http://www.w3.org/2000/svg">
<path d="M8.75017 4.25H3.05767L5.53267 1.7825C5.67389 1.64127 5.75323 1.44973 5.75323 1.25C5.75323 1.05028 5.67389 0.85873 5.53267 0.717502C5.39144 0.576274 5.19989 0.496933 5.00017 0.496933C4.80044 0.496933 4.60889 0.576274 4.46767 0.717502L0.717666 4.4675C0.649386 4.53883 0.595862 4.62294 0.560166 4.715C0.485153 4.8976 0.485153 5.10241 0.560166 5.285C0.595862 5.37707 0.649386 5.46117 0.717666 5.5325L4.46767 9.2825C4.53739 9.3528 4.62034 9.4086 4.71173 9.44667C4.80313 9.48475 4.90116 9.50435 5.00017 9.50435C5.09918 9.50435 5.1972 9.48475 5.2886 9.44667C5.37999 9.4086 5.46294 9.3528 5.53267 9.2825C5.60296 9.21278 5.65876 9.12983 5.69684 9.03843C5.73491 8.94704 5.75452 8.84901 5.75452 8.75C5.75452 8.65099 5.73491 8.55296 5.69684 8.46157C5.65876 8.37017 5.60296 8.28722 5.53267 8.2175L3.05767 5.75H8.75017C8.94908 5.75 9.13984 5.67098 9.2805 5.53033C9.42115 5.38968 9.50017 5.19891 9.50017 5C9.50017 4.80109 9.42115 4.61032 9.2805 4.46967C9.13984 4.32902 8.94908 4.25 8.75017 4.25Z" fill="#F9FAFB"/>
</svg>
