<svg width="406" height="283" viewBox="0 0 406 283" fill="none" xmlns="http://www.w3.org/2000/svg">
<path d="M369.971 30.6058H289.343C285.238 30.6058 281.91 33.9337 281.91 38.0387V153.334C281.91 157.439 285.238 160.767 289.343 160.767H369.971C374.076 160.767 377.404 157.439 377.404 153.334V38.0387C377.404 33.9337 374.076 30.6058 369.971 30.6058Z" stroke="#BCB9D9" stroke-width="3" stroke-miterlimit="10"/>
<path d="M366.492 44.0155H293.802C291.749 44.0155 290.085 45.6794 290.085 47.7319V63.1919C290.085 65.2444 291.749 66.9083 293.802 66.9083H366.492C368.544 66.9083 370.208 65.2444 370.208 63.1919V47.7319C370.208 45.6794 368.544 44.0155 366.492 44.0155Z" stroke="#BCB9D9" stroke-width="3" stroke-miterlimit="10"/>
<path d="M329.657 53.6596C330.965 53.6596 332.025 52.5996 332.025 51.2922C332.025 49.9847 330.965 48.9247 329.657 48.9247C328.35 48.9247 327.29 49.9847 327.29 51.2922C327.29 52.5996 328.35 53.6596 329.657 53.6596Z" fill="#DDDCEC"/>
<path d="M323.042 62.0037C323.042 60.2491 323.74 58.5664 324.98 57.3259C326.221 56.085 327.904 55.3882 329.658 55.3882C331.413 55.3882 333.095 56.085 334.336 57.3259C335.577 58.5664 336.273 60.2491 336.273 62.0037H323.042Z" fill="#DDDCEC"/>
<path d="M330.14 91.4451C327.618 91.446 325.152 92.1946 323.056 93.5964C320.959 94.9981 319.325 96.9903 318.36 99.3207C317.396 101.651 317.144 104.215 317.637 106.689C318.129 109.162 319.344 111.434 321.128 113.217C322.912 115 325.184 116.215 327.658 116.706C330.132 117.198 332.696 116.945 335.026 115.98C337.355 115.014 339.347 113.38 340.748 111.283C342.149 109.185 342.897 106.72 342.897 104.198C342.897 102.523 342.567 100.864 341.926 99.3167C341.285 97.7689 340.345 96.3627 339.161 95.1785C337.975 93.9943 336.569 93.055 335.022 92.4144C333.474 91.7739 331.815 91.4442 330.14 91.4451ZM330.14 113.873C329.661 113.85 329.21 113.643 328.879 113.296C328.548 112.949 328.364 112.488 328.364 112.008C328.364 111.529 328.548 111.068 328.879 110.721C329.21 110.374 329.661 110.167 330.14 110.144C330.618 110.167 331.07 110.374 331.401 110.721C331.731 111.068 331.916 111.529 331.916 112.008C331.916 112.488 331.731 112.949 331.401 113.296C331.07 113.643 330.618 113.85 330.14 113.873ZM332.494 99.5302C332.101 102.295 331.77 105.199 330.944 107.888C330.747 108.535 329.532 108.535 329.336 107.888C328.754 105.866 328.306 103.808 327.996 101.728C327.741 100.214 326.856 97.7613 327.701 96.2917C328.447 94.9516 330.546 94.8176 331.766 95.5055C333.262 96.3497 332.672 98.1544 332.494 99.5302Z" fill="#DDDCEC"/>
<path d="M190.598 56.4469C186.127 55.1135 181.361 55.1363 176.902 56.5116C172.444 57.8874 168.494 60.5542 165.551 64.175C162.608 67.7959 160.806 72.2079 160.37 76.8534C159.935 81.4986 160.888 86.1687 163.107 90.2729C165.327 94.3771 168.713 97.7313 172.838 99.9107C176.964 102.09 181.643 102.997 186.284 102.518C190.925 102.037 195.32 100.192 198.911 97.2149C202.504 94.2373 205.132 90.2613 206.465 85.7899C207.35 82.8212 207.642 79.7078 207.323 76.6265C207.005 73.5448 206.083 70.5565 204.61 67.8317C203.136 65.1068 201.14 62.6992 198.736 60.7458C196.332 58.792 193.567 57.3313 190.598 56.4469ZM178.748 96.2023C177.895 95.9208 177.187 95.3187 176.772 94.5232C176.357 93.7281 176.268 92.8021 176.524 91.9422C176.781 91.0823 177.362 90.3564 178.145 89.9182C178.928 89.48 179.851 89.3643 180.718 89.5957C181.163 89.7146 181.581 89.9218 181.945 90.2046C182.309 90.4878 182.613 90.8411 182.838 91.2436C183.063 91.646 183.205 92.09 183.256 92.5483C183.307 93.0071 183.265 93.4708 183.133 93.913C183.002 94.3552 182.782 94.7662 182.489 95.1222C182.195 95.4777 181.834 95.7712 181.424 95.9847C181.016 96.1982 180.568 96.3273 180.108 96.3649C179.648 96.4019 179.186 96.347 178.748 96.2023ZM190.496 72.0185C188.338 76.7132 186.212 81.6848 183.349 86.0133C182.661 87.0585 180.503 86.4153 180.499 85.1646C180.535 81.2775 180.834 77.3975 181.392 73.5506C181.741 70.7409 181.468 65.9256 183.742 63.7637C185.761 61.8295 189.549 62.6603 191.358 64.5185C193.533 66.7877 191.541 69.6778 190.496 72.0185Z" fill="#463F80"/>
<path d="M124.713 108.678C123.077 110.343 121.972 112.455 121.536 114.748C121.101 117.041 121.355 119.412 122.267 121.56C123.179 123.709 124.707 125.539 126.659 126.818C128.611 128.098 130.898 128.771 133.232 128.751C135.565 128.731 137.841 128.019 139.771 126.706C141.7 125.393 143.197 123.537 144.072 121.374C144.946 119.21 145.16 116.835 144.686 114.55C144.211 112.265 143.07 110.172 141.406 108.535C139.173 106.341 136.16 105.123 133.03 105.15C129.899 105.177 126.908 106.446 124.713 108.678ZM139.516 123.227C139.357 123.389 139.168 123.517 138.96 123.606C138.752 123.695 138.528 123.741 138.301 123.743C138.075 123.745 137.85 123.703 137.64 123.618C137.43 123.533 137.239 123.408 137.077 123.249C136.916 123.091 136.787 122.902 136.698 122.693C136.61 122.485 136.563 122.261 136.561 122.034C136.559 121.808 136.601 121.583 136.686 121.373C136.771 121.163 136.896 120.972 137.055 120.81C137.375 120.484 137.812 120.298 138.27 120.294C138.727 120.29 139.168 120.468 139.494 120.788C139.82 121.108 140.006 121.546 140.01 122.003C140.015 122.46 139.837 122.9 139.516 123.227ZM131.578 112.377C133.146 114.432 134.848 116.535 136.085 118.823C136.385 119.372 135.599 120.163 135.045 119.886C133.339 118.954 131.697 117.91 130.131 116.759C128.965 115.95 126.776 114.941 126.352 113.427C125.968 112.086 127.245 110.595 128.469 110.242C129.975 109.804 130.783 111.363 131.578 112.377Z" fill="#463F80"/>
<path d="M298.1 77.1285H360.4" stroke="#BCB9D9" stroke-width="3" stroke-miterlimit="10"/>
<path d="M298.1 83.2616H360.4" stroke="#BCB9D9" stroke-width="3" stroke-miterlimit="10"/>
<path d="M298.1 122.749H360.4" stroke="#BCB9D9" stroke-width="3" stroke-miterlimit="10"/>
<path d="M312.568 128.552H345.927" stroke="#BCB9D9" stroke-width="3" stroke-miterlimit="10"/>
<path d="M377.41 114.7C382.904 121.606 388.13 130.164 392.856 140.711C421.632 204.971 385.664 237.584 385.664 237.584" stroke="#9F9F9F" stroke-width="3" stroke-miterlimit="10"/>
<path d="M76.8543 165.654C76.8543 165.654 34.1552 117.219 87.4007 93.2362C140.646 69.2534 151.188 65.9211 147.346 40.9735C143.505 16.0258 173.701 -9.37744 221.189 7.40917C268.676 24.1958 269.628 55.8304 266.26 80.2866C264.348 94.2278 272.259 97.578 281.894 96.8767" stroke="#9F9F9F" stroke-width="3" stroke-miterlimit="10"/>
<path d="M374.398 258.485C374.29 261.159 373.598 263.776 372.37 266.154C372.322 266.273 372.265 266.388 372.2 266.498C370.047 270.366 367.035 273.689 363.396 276.209L363.266 276.299C359.982 278.496 356.286 280.008 352.403 280.743C352.403 280.779 352.403 280.743 352.403 280.743H393.74C393.74 280.743 388.21 201.88 337.385 163.51C288.2 126.381 242.151 144.275 239.23 145.472C240.135 148.027 240.539 150.733 240.422 153.441C240.422 153.441 244.121 155.366 244.737 162.259C245.354 169.151 246.64 188.314 234.271 191.924C234.271 191.924 223.167 191.651 220.232 187.39C217.297 183.128 216.591 183.995 215.439 185.076C214.545 185.893 209.154 188.815 206.666 190.155C206.98 190.17 207.293 190.213 207.599 190.284C207.599 190.284 209.024 202.309 226.459 221.155C227.05 221.777 227.607 222.43 228.129 223.111C230.762 225.413 233.721 227.763 237.005 230.16L256.901 244.718C257.35 245.1 257.882 245.37 258.455 245.508C259.568 245.789 260.732 245.8 261.85 245.54C264.164 245.093 279.963 243.48 290.188 242.462C290.42 242.462 290.666 242.417 290.894 242.391L292.234 242.261C292.448 242.261 292.681 242.216 292.868 242.203L294.074 242.087C294.664 242.029 295.195 241.971 295.687 241.93L297.027 241.801C298.211 241.685 298.912 241.613 298.97 241.613C301.406 241.544 303.834 241.308 306.238 240.908C308.538 240.461 310.637 239.742 311.182 238.549C311.286 238.298 311.324 238.024 311.294 237.754C311.171 236.995 310.854 236.281 310.374 235.681C308.274 232.863 303.397 230.446 303.039 230.272C303.029 230.268 303.018 230.268 303.008 230.272L302.91 230.2L273.875 207.643H273.844C273.844 207.643 278.217 160.99 318.066 172.47C318.066 172.47 318.254 172.6 318.597 172.886C320.152 174.083 325.043 178.049 332.235 185.46C332.423 185.661 332.624 185.862 332.825 186.076C333.588 186.854 334.339 187.662 335.085 188.453C340.132 193.849 346.105 200.723 352.693 209.295L352.738 209.34C360.287 219.167 365.728 228.172 369.266 236.141V236.168C373.094 244.829 374.706 252.249 374.389 258.168C374.399 258.273 374.402 258.379 374.398 258.485ZM254.207 178.299C253.028 164.707 259.643 159.784 260.014 159.512C250.607 176.531 268.055 202.617 268.666 203.627C268.166 203.207 255.386 191.888 254.207 178.299Z" fill="#353642"/>
<path d="M229.219 175.633C228.73 175.993 228.22 176.324 227.692 176.624L224.627 171.264C231.694 167.65 233.677 161.281 230.568 157.783C229.699 156.826 228.578 156.133 227.334 155.782C224.207 154.835 222.041 156.228 220.571 158.1C219.372 159.727 218.492 161.567 217.981 163.523L216.489 146.316L216.373 144.976C216.373 144.976 213.121 143.364 204.312 144.802C195.503 146.24 193.882 151.105 190.098 148.947C186.315 146.79 184.171 146.964 184.171 146.964C183.094 150.917 180.213 150.917 180.213 150.917C179.53 150.835 178.86 150.672 178.216 150.43C174.129 146.674 173.021 140.157 173.021 140.157C177.309 139.625 177.64 135.498 177.149 132.116C179.525 133.528 182.875 133.626 187.579 130.606C201.073 121.976 214.912 126.649 219.776 127.368C221.947 127.685 224.324 126.921 226.293 126.028C226.548 126.484 226.902 126.876 227.33 127.176C230.613 129.463 233.322 132.482 235.241 135.993C247.904 159.664 234.021 172.233 229.219 175.633Z" fill="#463F80"/>
<path d="M178.667 280.752H183.76C185.937 280.75 188.026 279.883 189.566 278.344C191.105 276.803 191.972 274.716 191.974 272.538V266.838C191.974 266.318 191.872 265.804 191.673 265.324C191.474 264.844 191.182 264.408 190.815 264.041C190.447 263.673 190.011 263.383 189.531 263.184C189.051 262.986 188.536 262.884 188.017 262.885H157.561C157.562 264.098 157.324 265.299 156.86 266.42C156.396 267.541 155.716 268.56 154.858 269.417C154 270.275 152.981 270.955 151.86 271.419C150.739 271.882 149.537 272.119 148.324 272.118H38.2727C38.2736 274.407 39.184 276.603 40.8028 278.222C42.422 279.841 44.6175 280.751 46.9072 280.752H196.102C196.296 280.753 196.489 280.715 196.67 280.641C196.85 280.566 197.014 280.457 197.151 280.319C197.289 280.181 197.398 280.017 197.473 279.837C197.547 279.657 197.585 279.464 197.585 279.269V270.018C197.585 268.221 198.299 266.497 199.569 265.227C200.84 263.956 202.564 263.242 204.361 263.242C206.158 263.242 207.882 263.956 209.153 265.227C210.423 266.497 211.137 268.221 211.137 270.018V279.269C211.136 279.463 211.174 279.656 211.248 279.836C211.323 280.016 211.431 280.18 211.569 280.318C211.706 280.455 211.869 280.565 212.049 280.639C212.229 280.714 212.421 280.752 212.616 280.752H393.74C393.74 280.752 388.21 201.871 337.385 163.505C288.2 126.376 242.151 144.271 239.23 145.468L239.087 145.521" stroke="#18181B" stroke-width="3" stroke-miterlimit="10"/>
<path d="M188.304 164.774C188.302 165.27 188.153 165.754 187.876 166.166C187.6 166.577 187.207 166.898 186.749 167.086C186.29 167.275 185.786 167.324 185.3 167.226C184.813 167.129 184.367 166.889 184.017 166.539C183.666 166.188 183.428 165.74 183.331 165.254C183.234 164.767 183.284 164.264 183.473 163.805C183.663 163.347 183.984 162.955 184.396 162.679C184.808 162.403 185.293 162.255 185.789 162.254C185.983 162.255 186.176 162.279 186.365 162.326C186.105 162.408 185.878 162.571 185.717 162.791C185.557 163.012 185.471 163.277 185.472 163.55C185.471 163.721 185.503 163.891 185.567 164.049C185.632 164.207 185.727 164.352 185.848 164.473C185.968 164.595 186.111 164.692 186.269 164.758C186.427 164.824 186.596 164.858 186.767 164.859C187.08 164.852 187.381 164.737 187.617 164.532C187.854 164.327 188.011 164.046 188.063 163.737C188.216 164.062 188.299 164.415 188.304 164.774Z" fill="#18181B"/>
<path d="M205.728 165.475C205.729 165.973 205.582 166.461 205.306 166.876C205.03 167.291 204.637 167.615 204.177 167.806C203.716 167.997 203.21 168.048 202.72 167.951C202.231 167.854 201.782 167.615 201.429 167.263C201.077 166.911 200.836 166.462 200.738 165.973C200.641 165.484 200.691 164.977 200.881 164.516C201.072 164.056 201.395 163.662 201.809 163.385C202.224 163.108 202.711 162.96 203.209 162.96C203.33 162.959 203.449 162.973 203.566 163C203.344 163.103 203.155 163.267 203.023 163.474C202.891 163.681 202.82 163.921 202.82 164.166C202.805 164.51 202.927 164.846 203.159 165.099C203.391 165.353 203.714 165.504 204.058 165.52C204.401 165.535 204.737 165.413 204.991 165.181C205.245 164.949 205.396 164.626 205.411 164.282C205.618 164.646 205.727 165.057 205.728 165.475Z" fill="#18181B"/>
<path d="M225.825 122.49C225.535 124.447 225.897 126.162 227.335 127.18C230.619 129.468 233.327 132.486 235.246 135.998C250.353 164.224 227.693 176.647 227.693 176.647L224.628 171.286C233.45 166.784 234.353 157.966 227.335 155.804C220.318 153.642 217.982 163.545 217.982 163.545L216.374 144.985C216.374 144.985 213.122 143.373 204.313 144.811C195.504 146.249 193.883 151.114 190.099 148.956C186.316 146.799 184.172 146.973 184.172 146.973C183.095 150.926 180.214 150.926 180.214 150.926C171.772 149.85 169.788 138.169 169.788 138.169C174.072 137.633 174.403 133.505 173.916 130.128C176.288 131.54 179.642 131.643 184.346 128.619C197.84 119.989 211.679 124.665 216.539 125.385C219.898 125.871 223.753 123.817 225.825 122.49Z" stroke="#18181B" stroke-width="3" stroke-linecap="round" stroke-linejoin="round"/>
<path d="M233.616 262.465L236.953 261.125L239.454 267.874L239.061 280.122L235.68 280.734L222.846 280.18C222.846 280.18 223.74 272.712 226.469 269.161C229.198 265.609 233.616 262.465 233.616 262.465Z" fill="#463F80"/>
<path d="M175.183 155.054C175.183 155.054 178.6 148.921 185.792 149.559" stroke="#18181B" stroke-width="3" stroke-miterlimit="10"/>
<path d="M199.877 149.559C199.877 149.559 208.096 147.714 210.973 152.284" stroke="#18181B" stroke-width="3" stroke-miterlimit="10"/>
<path d="M212.612 177.326C212.612 177.326 207.699 174.48 204.103 179.264" stroke="#18181B" stroke-width="3" stroke-miterlimit="10"/>
<path d="M181.562 150.542C181.562 150.542 178.064 191.687 204.147 190.927C208.613 190.798 213.054 187.863 217.297 183.142" stroke="#18181B" stroke-width="3" stroke-miterlimit="10"/>
<path d="M227.692 186.885L217.298 183.142C217.298 183.142 219.875 191.379 232.641 192.008C245.408 192.638 249.692 163.34 240.311 151.552" stroke="#18181B" stroke-width="3" stroke-linejoin="round"/>
<path d="M268.331 269.424C268.331 269.424 258.803 277.156 265.276 280.752" stroke="#18181B" stroke-width="3" stroke-miterlimit="10"/>
<path d="M260.963 262.228C260.963 262.228 244.435 271.582 258.626 280.752" stroke="#18181B" stroke-width="3" stroke-miterlimit="10"/>
<path d="M255.388 255.036C255.388 255.036 233.451 265.31 250.354 280.752" stroke="#18181B" stroke-width="3" stroke-miterlimit="10"/>
<path d="M347.638 280.752C347.638 280.752 374.252 280.752 374.609 255.036C374.966 229.32 323.003 164.747 289.376 155.764C255.749 146.781 254.306 171.398 254.306 172.408C254.306 173.417 252.332 184.022 260.962 195.336C267.627 204.082 297.064 225.917 310.125 235.404C310.605 235.754 310.967 236.24 311.163 236.8C311.359 237.36 311.381 237.966 311.224 238.538C311.068 239.11 310.74 239.621 310.286 240.003C309.832 240.385 309.273 240.619 308.682 240.675L250.916 246.223H250.88C250.335 246.321 229.948 250.083 223.739 256.47C223.739 256.47 220.26 259.048 222.06 263.005C223.86 266.963 229.39 265.659 229.542 265.511" stroke="#18181B" stroke-width="3" stroke-miterlimit="10"/>
<path opacity="0.26" d="M203.214 170.147C207.186 170.147 210.406 166.928 210.406 162.956C210.406 158.984 207.186 155.764 203.214 155.764C199.242 155.764 196.022 158.984 196.022 162.956C196.022 166.928 199.242 170.147 203.214 170.147Z" fill="white"/>
<path opacity="0.26" d="M184.963 169.437C188.934 169.437 192.154 166.217 192.154 162.245C192.154 158.273 188.934 155.054 184.963 155.054C180.991 155.054 177.771 158.273 177.771 162.245C177.771 166.217 180.991 169.437 184.963 169.437Z" fill="white"/>
<path d="M247.127 261.33C244.598 260.624 240.467 259.99 236.21 261.357C234.128 262.028 232.207 263.121 230.568 264.569C230.211 264.881 229.867 265.199 229.536 265.516C228.824 266.214 228.151 266.952 227.522 267.727C227.439 267.829 227.321 267.897 227.191 267.919C225.605 268.138 215.166 269.791 215.22 275.066C215.269 279.805 220.459 280.583 222.246 280.708C222.32 280.714 222.394 280.706 222.464 280.683C222.535 280.659 222.599 280.621 222.654 280.572C222.709 280.523 222.753 280.462 222.783 280.395C222.814 280.328 222.83 280.254 222.831 280.181C222.831 278.492 223.215 273.199 227.392 267.874" stroke="#18181B" stroke-width="3" stroke-miterlimit="10"/>
<path d="M153.073 224.099C154.296 233.966 146.627 238.428 138.242 239.089" stroke="#18181B" stroke-width="3" stroke-miterlimit="10"/>
<path d="M126.056 237.03C122.859 235.303 120.27 232.636 118.639 229.389C117.007 226.142 116.412 222.473 116.935 218.877C118.275 209.385 126.315 202.104 134.186 197.485C150.714 187.787 187.959 194.805 194.217 196.234C199.014 197.333 203.025 193.581 204.651 191.767C204.721 191.69 204.81 191.634 204.91 191.607C205.009 191.58 205.115 191.581 205.213 191.612C205.312 191.643 205.4 191.701 205.467 191.78C205.533 191.859 205.576 191.955 205.589 192.057C209.025 212.159 248.918 239.442 258.147 245.549" stroke="#18181B" stroke-width="3" stroke-miterlimit="10"/>
<path d="M163.136 217.273L149.928 225.47C149.141 225.96 148.259 226.28 147.341 226.409C146.423 226.537 145.488 226.472 144.597 226.217C143.705 225.961 142.877 225.522 142.166 224.928C141.454 224.333 140.876 223.595 140.467 222.763C139.73 221.268 139.584 219.55 140.058 217.953C140.531 216.355 141.59 214.994 143.022 214.142L163.123 202.166" stroke="#18181B" stroke-width="3" stroke-miterlimit="10"/>
<path d="M203.214 170.147C207.186 170.147 210.406 166.928 210.406 162.956C210.406 158.984 207.186 155.764 203.214 155.764C199.242 155.764 196.022 158.984 196.022 162.956C196.022 166.928 199.242 170.147 203.214 170.147Z" stroke="#18181B" stroke-width="3" stroke-miterlimit="10"/>
<path d="M184.963 168.361C188.34 168.361 191.078 165.623 191.078 162.245C191.078 158.868 188.34 156.13 184.963 156.13C181.585 156.13 178.847 158.868 178.847 162.245C178.847 165.623 181.585 168.361 184.963 168.361Z" stroke="white" stroke-width="3" stroke-miterlimit="10"/>
<path d="M184.963 169.437C188.934 169.437 192.154 166.217 192.154 162.245C192.154 158.273 188.934 155.054 184.963 155.054C180.991 155.054 177.771 158.273 177.771 162.245C177.771 166.217 180.991 169.437 184.963 169.437Z" stroke="#18181B" stroke-width="3" stroke-miterlimit="10"/>
<path d="M196.058 162.245H192.154" stroke="#18181B" stroke-width="3" stroke-miterlimit="10"/>
<path d="M196.058 172.408H193.485C193.323 172.408 193.163 172.372 193.016 172.304C192.87 172.235 192.74 172.134 192.637 172.01C192.534 171.885 192.459 171.739 192.419 171.583C192.379 171.426 192.373 171.262 192.404 171.103L194.105 162.245" stroke="#18181B" stroke-width="3" stroke-miterlimit="10"/>
<path d="M144.434 196.953C144.434 196.953 135.264 198.932 132.03 212.779C130.064 221.186 127.366 231.911 125.553 239.04C125.32 239.955 125.299 240.91 125.492 241.834C125.685 242.758 126.086 243.625 126.665 244.37C127.244 245.115 127.986 245.718 128.834 246.133C129.682 246.548 130.612 246.764 131.556 246.764C132.965 246.764 134.332 246.284 135.432 245.402C136.531 244.522 137.298 243.292 137.604 241.917L141.442 224.702" stroke="#18181B" stroke-width="3" stroke-miterlimit="10"/>
<path d="M152.817 229.32C152.817 229.32 162.443 223.567 181.405 229.32C200.367 235.074 222.166 238.978 229.357 223.719" stroke="#18181B" stroke-width="3" stroke-miterlimit="10"/>
<path d="M236.216 261.357C236.216 261.357 242.916 269.004 238.842 280.752" stroke="#18181B" stroke-width="3" stroke-miterlimit="10"/>
<path d="M14.8046 166.261H120.67C124.08 166.257 127.392 167.4 130.073 169.506C132.754 171.613 134.649 174.561 135.451 177.875L152.305 247.675C152.759 249.558 152.781 251.52 152.368 253.413C151.954 255.306 151.117 257.081 149.918 258.603C148.72 260.125 147.191 261.356 145.448 262.202C143.705 263.048 141.793 263.488 139.855 263.488H34.2623C30.859 263.491 27.5531 262.351 24.8752 260.25C22.1974 258.15 20.3026 255.211 19.4948 251.905L2.36873 182.119C1.90627 180.233 1.87844 178.267 2.28739 176.37C2.69633 174.472 3.53133 172.692 4.72926 171.165C5.92715 169.637 7.45666 168.402 9.20215 167.552C10.9476 166.703 12.8634 166.262 14.8046 166.261Z" fill="#463F80"/>
<path d="M18.6596 169.263H117.985C121.186 169.267 124.291 170.344 126.806 172.323C129.32 174.302 131.098 177.067 131.855 180.176L147.677 245.656C148.104 247.423 148.125 249.263 147.738 251.039C147.35 252.815 146.565 254.48 145.44 255.908C144.316 257.336 142.883 258.491 141.247 259.284C139.612 260.078 137.818 260.49 136 260.49H36.9157C33.7259 260.484 30.6303 259.41 28.1208 257.441C25.6113 255.471 23.833 252.719 23.0685 249.622L6.98762 184.138C6.55339 182.368 6.52721 180.524 6.9111 178.743C7.29494 176.963 8.07879 175.292 9.20329 173.859C10.3278 172.426 11.7635 171.268 13.4018 170.471C15.0401 169.675 16.8381 169.262 18.6596 169.263Z" fill="#463F80"/>
<path d="M14.8046 166.261H120.67C124.08 166.257 127.392 167.4 130.073 169.506C132.754 171.613 134.649 174.561 135.451 177.875L152.305 247.675C152.759 249.558 152.781 251.52 152.368 253.413C151.954 255.306 151.117 257.081 149.918 258.603C148.72 260.125 147.191 261.356 145.448 262.202C143.705 263.048 141.793 263.488 139.855 263.488H34.2623C30.859 263.491 27.5531 262.351 24.8752 260.25C22.1974 258.15 20.3026 255.211 19.4948 251.905L2.36873 182.119C1.90627 180.233 1.87844 178.267 2.28739 176.37C2.69633 174.472 3.53133 172.692 4.72926 171.165C5.92715 169.637 7.45666 168.402 9.20215 167.552C10.9476 166.703 12.8634 166.262 14.8046 166.261Z" stroke="#18181B" stroke-width="3" stroke-miterlimit="10"/>
<path d="M123.939 221.905C123.938 222.443 123.724 222.958 123.344 223.338C122.963 223.718 122.448 223.932 121.911 223.933H111.146C109.506 222.289 109.006 219.98 109.993 218.309H119.472C120.374 218.31 121.257 218.572 122.014 219.065C122.77 219.557 123.368 220.258 123.733 221.083C123.857 221.341 123.927 221.62 123.939 221.905Z" fill="#463F80"/>
<path d="M128.884 234.323C128.879 234.862 128.662 235.377 128.28 235.757C127.898 236.136 127.381 236.35 126.842 236.351H48.5735C49.574 234.672 49.0738 232.371 47.4299 230.732H124.444C125.347 230.731 126.231 230.995 126.987 231.489C127.743 231.983 128.338 232.687 128.701 233.515C128.816 233.769 128.879 234.044 128.884 234.323Z" fill="#463F80"/>
<path d="M55.4797 248.617H43.0885C42.1862 248.616 41.3031 248.354 40.5468 247.862C39.7906 247.369 39.1933 246.668 38.8271 245.843C38.7042 245.594 38.6341 245.322 38.6216 245.044C38.6229 244.504 38.8378 243.987 39.2197 243.605C39.6012 243.223 40.1184 243.008 40.6585 243.007H54.3138C53.3624 244.695 53.8492 246.991 55.4797 248.617Z" fill="#463F80"/>
</svg>
