<svg width="18" height="20" viewBox="0 0 18 20" fill="none" xmlns="http://www.w3.org/2000/svg">
<path d="M7.39189 17.0858C7.39188 16.9635 7.36498 16.8428 7.31311 16.7322C7.26124 16.6215 7.18566 16.5236 7.09174 16.4454C6.99782 16.3672 6.88784 16.3106 6.76962 16.2797C6.65139 16.2487 6.5278 16.2441 6.4076 16.2663C5.3167 16.4665 3.93934 16.4966 3.57313 15.4679C3.2538 14.6713 2.72485 13.9759 2.04237 13.4554C1.99367 13.4289 1.94726 13.3984 1.90362 13.3643C1.84389 13.2067 1.7378 13.071 1.59934 12.9749C1.46088 12.8789 1.29656 12.8271 1.12806 12.8263H1.12399C0.90366 12.8263 0.692268 12.9135 0.536087 13.0689C0.379907 13.2243 0.29166 13.4353 0.290661 13.6556C0.287403 14.3351 0.966494 14.7705 1.24199 14.9178C1.56686 15.2442 1.82795 15.6284 2.01185 16.0506C2.3154 16.9035 3.19756 18.1974 5.73337 18.0306C5.7342 18.0599 5.73499 18.0876 5.7354 18.1128L5.73906 18.3358C5.73906 18.5568 5.82686 18.7688 5.98314 18.9251C6.13942 19.0813 6.35138 19.1691 6.57239 19.1691C6.79341 19.1691 7.00537 19.0813 7.16165 18.9251C7.31793 18.7688 7.40573 18.5568 7.40573 18.3358L7.40166 18.0705C7.39759 17.9126 7.39189 17.6839 7.39189 17.0858ZM16.2811 4.48076C16.3075 4.37659 16.3336 4.26103 16.3563 4.13082C16.4911 3.20215 16.3736 2.25432 16.0162 1.38666C15.9711 1.27354 15.9018 1.17166 15.8131 1.08816C15.7245 1.00466 15.6187 0.941552 15.5031 0.903267C15.2064 0.803167 14.1111 0.606225 12.0163 1.94493C10.2751 1.53518 8.46255 1.53518 6.72134 1.94493C4.63514 0.625834 3.54546 0.804834 3.25168 0.899234C3.13323 0.935967 3.02451 0.998739 2.93347 1.08295C2.84243 1.16716 2.77139 1.27067 2.72555 1.3859C2.3608 2.27022 2.24459 3.23738 2.38945 4.18293C2.4098 4.28954 2.43177 4.38802 2.45456 4.47834C1.7642 5.39788 1.39649 6.51948 1.40842 7.66926C1.40617 7.92579 1.41799 8.18225 1.44382 8.43748C1.72215 12.2729 4.22215 13.4245 5.96408 13.82C5.92787 13.9241 5.89491 14.0356 5.86561 14.1536C5.81339 14.3681 5.84834 14.5944 5.96278 14.7831C6.07722 14.9718 6.26181 15.1074 6.47609 15.1602C6.69036 15.213 6.91682 15.1786 7.10582 15.0647C7.29481 14.9508 7.4309 14.7665 7.48426 14.5524C7.53728 14.2747 7.67319 14.0197 7.87408 13.8208C7.99554 13.7145 8.08348 13.5751 8.12721 13.4197C8.17093 13.2643 8.16855 13.0995 8.12035 12.9455C8.07215 12.7914 7.98022 12.6546 7.85573 12.5519C7.73125 12.4491 7.57957 12.3847 7.41916 12.3665C4.54074 12.0378 3.29114 10.8651 3.10316 8.2845C3.08234 8.08011 3.07296 7.87471 3.07509 7.66927C3.06172 6.84981 3.33244 6.051 3.84128 5.40852C3.89241 5.34154 3.94686 5.27717 4.00444 5.21565C4.10647 5.10149 4.17507 4.96142 4.20271 4.81082C4.23034 4.66023 4.21595 4.50493 4.16111 4.36198C4.10489 4.21158 4.0616 4.05667 4.03172 3.89892C3.96383 3.45035 3.9861 2.99274 4.09722 2.55288C4.8215 2.75744 5.50315 3.09042 6.10972 3.53595C6.21003 3.60276 6.32353 3.64722 6.44253 3.66632C6.56153 3.68542 6.68324 3.6787 6.79942 3.64663C8.48368 3.18955 10.2594 3.18984 11.9435 3.64747C12.0603 3.6795 12.1826 3.68583 12.3021 3.66602C12.4216 3.64621 12.5354 3.60074 12.6356 3.53273C13.2393 3.08534 13.9181 2.74939 14.64 2.5407C14.7506 2.97 14.7754 3.41691 14.7128 3.8558C14.6826 4.02875 14.6355 4.1983 14.572 4.36199C14.5172 4.50494 14.5028 4.66024 14.5304 4.81084C14.5581 4.96143 14.6267 5.1015 14.7287 5.21567C14.793 5.28809 14.8573 5.36622 14.9151 5.43946C15.4203 6.07106 15.6865 6.86069 15.6666 7.66926C15.6681 7.8856 15.6577 8.10186 15.6353 8.31704C15.4518 10.8634 14.1973 12.0369 11.3055 12.3665C11.145 12.3848 10.9933 12.4493 10.8689 12.5522C10.7444 12.6551 10.6525 12.7919 10.6043 12.946C10.5562 13.1002 10.5539 13.265 10.5976 13.4204C10.6414 13.5759 10.7294 13.7152 10.851 13.8216C11.0582 14.0258 11.1944 14.2911 11.2396 14.5784C11.2959 14.8015 11.3217 15.0312 11.3165 15.2612V17.2062C11.3083 17.7457 11.3083 18.1502 11.3083 18.3358C11.3083 18.5568 11.3961 18.7687 11.5524 18.925C11.7087 19.0813 11.9206 19.1691 12.1416 19.1691C12.3626 19.1691 12.5746 19.0813 12.7309 18.925C12.8872 18.7687 12.975 18.5568 12.975 18.3358C12.975 18.1551 12.975 17.7588 12.9831 17.2192V15.2612C12.9898 14.8927 12.9464 14.5251 12.8541 14.1683C12.8277 14.0512 12.7954 13.9354 12.7573 13.8216C14.025 13.611 15.1768 12.9574 16.0078 11.9771C16.8388 10.9968 17.2949 9.7535 17.295 8.46842C17.3225 8.20294 17.3353 7.93615 17.3333 7.66926C17.3518 6.51823 16.981 5.3947 16.2811 4.48078L16.2811 4.48076Z" fill="black"/>
</svg>
