<svg width="350" height="442" viewBox="0 0 350 442" fill="none" xmlns="http://www.w3.org/2000/svg">
<path d="M245.169 212.393C212.458 231.873 172.553 208.921 174.428 208.521C236.267 195.075 241.731 156.062 241.731 156.062C229.386 125.897 195.734 135.608 195.734 135.608C194.76 178.415 143.81 180.826 143.81 180.826C140.538 166.936 140.718 134.507 140.718 134.507C125.275 123.71 122.148 128.293 122.148 128.293C127.018 85.437 146.63 71.6208 146.63 71.6208C149.898 68.5771 164.503 61.7347 172.003 60.8484L172.27 62.0367C172.27 62.0367 164.688 80.9712 179.22 82.2179C191.449 83.2893 198.398 68.2362 200.292 63.4587C216.193 68.3871 231.368 79.4177 241.463 97.9724C265.346 141.871 245.169 212.393 245.169 212.393Z" fill="#2E2E2E"/>
<path d="M248.706 193.921L328.189 246.517C343.603 256.715 341.621 279.925 324.717 287.362L231.7 328.299C223.049 332.105 213.564 333.621 204.158 332.701C194.753 331.781 185.742 328.455 177.993 323.044L142.272 298.071" stroke="#18181B" stroke-width="3" stroke-miterlimit="10"/>
<path d="M248.706 210.883L246.033 209.111L328.204 263.47C343.618 273.667 341.636 296.878 324.732 304.314L231.715 345.252C223.064 349.057 213.579 350.574 204.173 349.653C194.768 348.733 185.757 345.407 178.008 339.997L132.591 307.65" stroke="#18181B" stroke-width="3" stroke-miterlimit="10"/>
<path d="M317.874 284.459L232.382 322.09C224.431 325.587 215.715 326.979 207.071 326.133C198.427 325.287 190.146 322.231 183.024 317.259L150.264 294.243C154.774 290.786 159.828 288.104 165.219 286.305C178.724 281.718 191.903 276.224 204.666 269.859C214.355 265.066 222.866 258.193 229.591 249.729C236.315 241.266 241.088 231.422 243.568 220.901C245.282 213.62 246.787 206.257 248.019 198.854L323.261 248.592C337.423 257.962 333.405 277.632 317.874 284.459Z" fill="#463F80"/>
<path d="M97.5807 393.518C97.5807 393.518 112.571 387.304 115.444 382.619C115.444 382.619 115.984 393.255 113.179 396.888C110.374 400.521 93.6117 410.125 92.7107 408.922C91.8098 407.719 97.5807 393.518 97.5807 393.518Z" fill="#463F80"/>
<path d="M51.4375 418.862C51.4375 418.862 54.1647 422.563 63.8414 418.862C73.5181 415.16 94.5711 401.529 94.5711 401.529C94.5711 401.529 88.6979 417.298 86.5697 419.032C84.4415 420.766 44.2348 440.46 44.2348 440.46C44.2348 440.46 26.2596 443.017 33.0338 430.233L51.4375 418.862Z" fill="#463F80"/>
<path d="M109.303 212.822C87.1441 221.446 63.695 241.71 70.44 297.828L72.3149 312.408" stroke="#18181B" stroke-width="3" stroke-miterlimit="10"/>
<path d="M109.268 176.175C112.891 171.003 116.164 165.412 118.17 159.393C120.177 153.374 120.279 146.853 120.839 140.522C122.329 123.545 124.638 109.505 131.188 93.6917C136.861 80.007 153.999 62.3776 171.049 60.7072L172.583 60.5757" stroke="#18181B" stroke-width="3" stroke-miterlimit="10"/>
<path d="M152.124 211.58C152.042 211.341 151.959 211.117 151.871 210.883" stroke="#18181B" stroke-width="3" stroke-miterlimit="10"/>
<path d="M143.81 179.774C142.972 174.85 142.349 170.078 141.862 165.549C141.863 165.463 141.854 165.378 141.833 165.295C139.281 140.005 141.862 121.607 141.862 121.607" stroke="#18181B" stroke-width="3" stroke-miterlimit="10"/>
<path d="M203.376 26.281L199.48 27.8007C199.48 27.9224 199.48 29.4419 199.314 31.57C199.133 34.1117 198.729 36.6329 198.106 39.1039C198.452 37.4189 198.954 33.4158 196.752 30.6301C196.718 30.5732 196.679 30.5191 196.636 30.4694C195.175 28.7114 193.373 29.4078 191.926 30.6155C190.928 31.4605 190.055 32.4447 189.335 33.5375C189.588 30.2839 189.004 27.02 187.641 24.0554C186.751 22.0331 185.571 20.1513 184.139 18.4696C186.345 26.0668 183.516 31.0392 183.516 31.0392C176.04 32.7973 170.854 32.4223 166.987 31.7551C163.729 28.7162 164.859 17.7731 164.859 17.7731C161.581 20.4516 162.37 30.8152 162.37 30.8152C161.951 28.1109 162.003 25.3544 162.521 22.6675C160.893 24.9698 159.952 27.6872 159.809 30.5035L159.75 30.4743C159.524 30.4163 159.302 30.3462 159.083 30.2649C158.682 30.0535 158.293 29.8198 157.919 29.5636L155.762 28.1026C159.02 11.4811 170.411 1.03008 188.011 4.09818C189.16 4.2962 190.29 4.58937 191.391 4.97478C202.986 11.0185 203.376 26.281 203.376 26.281Z" fill="#463F80"/>
<path d="M102.937 188.16L98.5003 174.806C98.4024 174.496 98.2266 174.215 97.9894 173.991C97.7528 173.767 97.4625 173.606 97.1464 173.526C97.1075 173.526 97.0637 173.526 97.0198 173.496C96.976 173.467 96.9662 173.496 96.937 173.496C96.8352 173.49 96.7325 173.49 96.6302 173.496C96.1383 173.498 95.665 173.686 95.3056 174.022C94.9457 174.355 94.6579 174.759 94.4611 175.208C94.2639 175.657 94.1621 176.142 94.1611 176.633C94.1616 177.016 94.2225 177.398 94.3413 177.763C95.3153 180.582 97.049 185.671 97.8721 187.99" fill="#463F80"/>
<path d="M101.934 188.16L97.1515 173.526C97.1126 173.526 97.0687 173.526 97.0249 173.496C96.9811 173.467 96.9713 173.496 96.9421 173.496L94.4341 173.009C93.0948 172.761 91.7556 172.493 90.4163 172.245C88.8092 171.923 87.1924 171.656 85.5901 171.271C85.2117 171.164 84.8231 171.098 84.4311 171.076C83.9373 171.075 83.4624 171.265 83.1064 171.607C82.7431 171.94 82.4534 172.344 82.2561 172.796C82.0589 173.247 81.9591 173.735 81.962 174.227C81.9595 174.606 82.0204 174.983 82.1422 175.342C83.2184 178.498 85.2687 184.469 85.9213 186.28L101.934 188.16Z" fill="#463F80"/>
<path d="M196.49 121.602C196.003 127.022 195.749 133.582 195.579 141.827C195.579 159.359 176.197 173.876 158.972 177.198L127.385 184.332C123.211 185.141 119.514 182.535 116.612 180.806C113.627 179.029 110.568 176.91 108.416 175.337C105.318 173.073 99.3527 174.894 100.575 180.295C100.839 181.322 101.336 182.274 102.028 183.078C102.719 183.881 103.587 184.514 104.564 184.926C105.114 185.173 105.68 185.381 106.259 185.55C106.474 185.604 106.666 185.727 106.804 185.902C106.942 186.076 107.019 186.29 107.021 186.512C107.025 186.735 106.955 186.952 106.822 187.13C106.689 187.308 106.501 187.437 106.288 187.498C103.551 188.442 98.5394 189.002 90.4552 186.037C80.0967 182.223 79.2936 205.862 93.4556 209.978H93.5092C106.556 213.922 120.596 213.416 134.081 212.851C149.394 212.271 164.632 210.412 179.635 207.294C187.266 205.677 195.107 203.997 202.09 200.544C214.119 194.598 222.788 187.78 231.033 177.168C240.286 165.271 244.235 149.663 246.466 135.028C249.018 118.285 245.492 104.148 236.516 89.7373L236.185 89.2113" stroke="#18181B" stroke-width="3" stroke-miterlimit="10"/>
<path d="M102.937 188.16L98.5003 174.806C98.4024 174.496 98.2266 174.215 97.9894 173.991C97.7528 173.767 97.4625 173.606 97.1464 173.526C97.1075 173.526 97.0637 173.526 97.0198 173.496C96.976 173.467 96.9662 173.496 96.937 173.496C96.8352 173.49 96.7325 173.49 96.6302 173.496C96.1383 173.498 95.665 173.686 95.3056 174.022C94.9457 174.355 94.6579 174.759 94.4611 175.208C94.2639 175.657 94.1621 176.142 94.1611 176.633C94.1616 177.016 94.2225 177.398 94.3413 177.763C95.3153 180.582 97.049 185.671 97.8721 187.99" stroke="#18181B" stroke-width="3" stroke-miterlimit="10"/>
<path d="M97.1515 173.526C97.1125 173.526 97.0687 173.526 97.0249 173.496C96.981 173.467 96.9713 173.496 96.9421 173.496L94.4341 173.009C93.0948 172.761 91.7556 172.493 90.4163 172.245C88.8092 171.923 87.1924 171.656 85.5901 171.271C85.2117 171.164 84.8231 171.098 84.4311 171.076C83.9373 171.075 83.4624 171.265 83.1064 171.607C82.7431 171.94 82.4534 172.344 82.2561 172.796C82.0589 173.247 81.9591 173.735 81.962 174.227C81.9595 174.606 82.0204 174.983 82.1422 175.342C83.2184 178.498 85.2687 184.469 85.9213 186.28" stroke="#18181B" stroke-width="3" stroke-miterlimit="10"/>
<path d="M158.295 30.0262C158.295 36.3572 159.527 42.4107 162.566 48.0014C165.001 52.4916 168.576 57.0158 173.689 58.5011C174.822 58.8279 175.996 58.992 177.176 58.9881C185.854 58.9492 187.208 48.6686 187.208 48.6686" stroke="#18181B" stroke-width="3" stroke-miterlimit="10"/>
<path d="M199.022 33.6982V33.7275C198.62 36.8686 197.928 39.9664 196.957 42.9805C195.797 46.576 195.522 50.3989 196.158 54.123L197.507 61.9686C197.569 62.3183 197.727 62.6436 197.965 62.907C198.203 63.1705 198.51 63.3619 198.851 63.4588C215.974 68.4311 231.174 79.4032 240.018 95.2453C251.048 115.027 253.059 138.851 252.168 161.059C251.384 180.31 248.272 199.449 243.855 218.184C241.155 229.634 235.96 240.347 228.641 249.558C221.322 258.768 212.059 266.249 201.515 271.466C187.64 278.395 173.31 284.374 158.625 289.364C150.851 291.938 143.749 296.212 137.835 301.876C131.92 307.539 127.342 314.45 124.433 322.105L89.9242 413.865C88.6556 417.253 86.1543 420.036 82.9211 421.657L49.8539 438.269C45.6778 440.359 40.9145 440.963 36.3493 439.983C35.1655 439.728 34.0863 439.121 33.2515 438.244C32.4173 437.366 31.8665 436.258 31.6707 435.063C31.4755 433.868 31.6444 432.641 32.1558 431.544C32.6671 430.446 33.497 429.528 34.5377 428.909L51.4269 418.862L74.6519 300.462C76.2863 289.899 80.1886 279.816 86.091 270.904C91.9935 261.993 99.7558 254.466 108.844 248.84C110.056 248.101 111.319 247.451 112.623 246.892L162.969 225.031" stroke="#18181B" stroke-width="3" stroke-miterlimit="10"/>
<path d="M185.181 2.95415C182.489 2.31262 179.703 2.17066 176.961 2.53533C176.848 2.53781 176.736 2.54755 176.625 2.56455" stroke="#18181B" stroke-width="3" stroke-miterlimit="10"/>
<path d="M172.987 60.863C172.987 60.863 164.08 81.2829 180.01 82.291C194.303 83.2066 199.548 63.785 199.548 63.785" stroke="#18181B" stroke-width="3" stroke-miterlimit="10"/>
<path d="M197.902 39.849C198.004 39.474 199.538 33.9368 196.607 30.4499C193.675 26.963 189.701 32.9433 189.302 33.5423C190.081 24.9567 184.115 18.4455 184.115 18.4455C186.316 26.0476 183.482 31.0148 183.482 31.0148C172.588 33.5667 166.593 31.6236 162.341 30.7859C161.923 28.0831 161.976 25.3284 162.497 22.6435C160.865 24.94 159.923 27.6555 159.784 30.4694H159.716C158.098 30.0394 156.563 29.3395 155.177 28.3996L153.02 26.9386C156.283 10.3224 167.669 -0.13837 185.269 2.92973C202.869 5.99783 203.361 26.2375 203.361 26.2375L199.441 27.7617C199.441 27.7617 199.475 34.4433 197.902 39.849Z" stroke="#18181B" stroke-width="3" stroke-miterlimit="10"/>
<path d="M165.123 38.9822V47.0615C165.124 47.1599 165.147 47.2568 165.192 47.344C165.237 47.4316 165.302 47.5071 165.382 47.5651C165.462 47.623 165.554 47.661 165.65 47.6771C165.748 47.6927 165.847 47.6854 165.941 47.6557C166.576 47.4453 167.161 47.1034 167.655 46.6524" stroke="#18181B" stroke-width="3" stroke-miterlimit="10"/>
<path d="M160.29 45.1154C162.839 44.1219 163.784 40.4441 162.403 36.9007C161.022 33.3573 157.836 31.2904 155.287 32.2839C152.739 33.2774 151.792 36.9552 153.174 40.4986C154.556 44.042 157.742 46.1089 160.29 45.1154Z" stroke="#18181B" stroke-width="3" stroke-miterlimit="10"/>
<path d="M175.626 47.4257C178.175 46.4322 179.121 42.7544 177.74 39.211C176.358 35.6676 173.172 33.6007 170.624 34.5942C168.075 35.5877 167.129 39.266 168.51 42.8089C169.892 46.3524 173.078 48.4197 175.626 47.4257Z" stroke="#18181B" stroke-width="3" stroke-miterlimit="10"/>
<path d="M162.979 39.4009C162.979 39.4009 164.488 37.677 167.654 39.698" stroke="#18181B" stroke-width="3" stroke-miterlimit="10"/>
<path d="M172.271 57.9897C172.271 57.9897 173.367 61.7007 176.591 73.7296" stroke="#18181B" stroke-width="3" stroke-miterlimit="10"/>
<path d="M91.5557 409.53L110.549 399.279C111.637 398.689 112.565 397.842 113.252 396.812C113.938 395.781 114.363 394.599 114.488 393.367C117.644 362.369 116.68 342.773 116.68 342.773" stroke="#18181B" stroke-width="3" stroke-miterlimit="10"/>
<path d="M74.3165 250.564L1.22266 199.483" stroke="#18181B" stroke-width="3" stroke-miterlimit="10"/>
<path d="M70.177 264.638L1.22266 216.445" stroke="#18181B" stroke-width="3" stroke-miterlimit="10"/>
<path d="M349.777 167.545V209.364C349.777 211.281 349.22 213.158 348.174 214.765C347.128 216.372 345.638 217.641 343.885 218.417L292.019 241.384L276.163 265.481C275.754 266.079 275.167 266.531 274.485 266.772C273.803 267.014 273.061 267.032 272.368 266.824C271.675 266.616 271.067 266.194 270.63 265.617C270.193 265.04 269.951 264.339 269.939 263.616V251.168L264.621 253.52C263.438 254.038 262.145 254.253 260.858 254.147C259.572 254.04 258.332 253.616 257.249 252.912C256.167 252.208 255.277 251.247 254.659 250.113C254.041 248.98 253.713 247.711 253.707 246.42V211.497C253.708 207.141 254.982 202.881 257.373 199.24C259.763 195.598 263.166 192.736 267.163 191.004L338.44 160.104C339.674 159.568 341.022 159.348 342.362 159.463C343.703 159.578 344.994 160.025 346.118 160.763C347.243 161.501 348.166 162.508 348.805 163.692C349.444 164.876 349.778 166.2 349.777 167.545Z" fill="#BCB9D9"/>
<path d="M286.154 222.204C288.709 217.275 288.017 211.848 284.61 210.082C281.202 208.315 276.369 210.879 273.814 215.807C271.26 220.736 271.951 226.164 275.358 227.93C278.766 229.696 283.599 227.133 286.154 222.204Z" fill="white"/>
<path d="M308.305 212.723C310.86 207.794 310.168 202.367 306.761 200.601C303.353 198.835 298.52 201.398 295.965 206.327C293.411 211.255 294.102 216.683 297.509 218.449C300.917 220.215 305.75 217.652 308.305 212.723Z" fill="white"/>
<path d="M329.71 202.485C332.265 197.557 331.574 192.129 328.166 190.363C324.759 188.597 319.925 191.16 317.371 196.089C314.816 201.017 315.507 206.445 318.915 208.211C322.322 209.977 327.155 207.414 329.71 202.485Z" fill="white"/>
</svg>
