<svg width="18" height="18" viewBox="0 0 18 18" fill="none" xmlns="http://www.w3.org/2000/svg">
<path d="M13.45 3.55C13.2522 3.55 13.0588 3.60865 12.8944 3.71853C12.7299 3.82841 12.6018 3.98459 12.5261 4.16731C12.4504 4.35004 12.4306 4.55111 12.4692 4.74509C12.5078 4.93907 12.603 5.11725 12.7429 5.2571C12.8827 5.39696 13.0609 5.4922 13.2549 5.53078C13.4489 5.56937 13.6499 5.54956 13.8326 5.47388C14.0154 5.39819 14.1715 5.27002 14.2814 5.10557C14.3913 4.94112 14.45 4.74778 14.45 4.55C14.45 4.28478 14.3446 4.03043 14.1571 3.84289C13.9695 3.65535 13.7152 3.55 13.45 3.55ZM17.2833 5.56666C17.2671 4.87525 17.1376 4.19117 16.9 3.54166C16.6881 2.98594 16.3583 2.48273 15.9333 2.06666C15.5206 1.63952 15.0163 1.31181 14.4583 1.10833C13.8105 0.863465 13.1257 0.731006 12.4333 0.716664C11.55 0.666664 11.2666 0.666664 8.99996 0.666664C6.73329 0.666664 6.44996 0.666664 5.56663 0.716664C4.87425 0.731006 4.18941 0.863465 3.54163 1.10833C2.98469 1.31387 2.48074 1.6413 2.06663 2.06666C1.63948 2.47931 1.31177 2.9837 1.10829 3.54166C0.863427 4.18945 0.730968 4.87429 0.716626 5.56666C0.666626 6.45 0.666626 6.73333 0.666626 9C0.666626 11.2667 0.666626 11.55 0.716626 12.4333C0.730968 13.1257 0.863427 13.8105 1.10829 14.4583C1.31177 15.0163 1.63948 15.5207 2.06663 15.9333C2.48074 16.3587 2.98469 16.6861 3.54163 16.8917C4.18941 17.1365 4.87425 17.269 5.56663 17.2833C6.44996 17.3333 6.73329 17.3333 8.99996 17.3333C11.2666 17.3333 11.55 17.3333 12.4333 17.2833C13.1257 17.269 13.8105 17.1365 14.4583 16.8917C15.0163 16.6882 15.5206 16.3605 15.9333 15.9333C16.3602 15.5188 16.6902 15.0152 16.9 14.4583C17.1376 13.8088 17.2671 13.1248 17.2833 12.4333C17.2833 11.55 17.3333 11.2667 17.3333 9C17.3333 6.73333 17.3333 6.45 17.2833 5.56666ZM15.7833 12.3333C15.7772 12.8623 15.6814 13.3864 15.5 13.8833C15.3669 14.246 15.1532 14.5737 14.875 14.8417C14.6047 15.1171 14.2776 15.3304 13.9166 15.4667C13.4197 15.6481 12.8956 15.7439 12.3666 15.75C11.5333 15.7917 11.225 15.8 9.03329 15.8C6.84163 15.8 6.53329 15.8 5.69996 15.75C5.1507 15.7603 4.60379 15.6757 4.08329 15.5C3.73811 15.3567 3.42609 15.144 3.16663 14.875C2.89003 14.6073 2.679 14.2793 2.54996 13.9167C2.34651 13.4126 2.23366 12.8766 2.21663 12.3333C2.21663 11.5 2.16663 11.1917 2.16663 9C2.16663 6.80833 2.16663 6.5 2.21663 5.66666C2.22036 5.12588 2.31908 4.58995 2.50829 4.08333C2.655 3.73159 2.88018 3.41805 3.16663 3.16666C3.4198 2.88014 3.7327 2.65258 4.08329 2.5C4.59125 2.3167 5.12662 2.2209 5.66663 2.21666C6.49996 2.21666 6.80829 2.16666 8.99996 2.16666C11.1916 2.16666 11.5 2.16666 12.3333 2.21666C12.8623 2.22273 13.3864 2.31854 13.8833 2.5C14.262 2.64054 14.6019 2.86904 14.875 3.16666C15.148 3.42265 15.3614 3.73561 15.5 4.08333C15.6852 4.59078 15.781 5.12648 15.7833 5.66666C15.825 6.5 15.8333 6.80833 15.8333 9C15.8333 11.1917 15.825 11.5 15.7833 12.3333ZM8.99996 4.725C8.1548 4.72664 7.32909 4.97877 6.62717 5.44951C5.92525 5.92026 5.37861 6.58849 5.05632 7.36979C4.73403 8.15109 4.65056 9.01039 4.81645 9.83911C4.98235 10.6678 5.39016 11.4288 5.98836 12.0258C6.58656 12.6228 7.3483 13.0292 8.17734 13.1935C9.00638 13.3577 9.86551 13.2726 10.6462 12.9488C11.4269 12.625 12.094 12.077 12.5634 11.3742C13.0328 10.6714 13.2833 9.84516 13.2833 9C13.2844 8.43759 13.1743 7.8805 12.9593 7.36079C12.7444 6.84109 12.4288 6.36901 12.0307 5.97171C11.6326 5.57441 11.1599 5.25973 10.6398 5.04577C10.1197 4.83181 9.56237 4.7228 8.99996 4.725ZM8.99996 11.775C8.45112 11.775 7.9146 11.6122 7.45825 11.3073C7.00191 11.0024 6.64623 10.569 6.43619 10.0619C6.22616 9.55488 6.17121 8.99692 6.27828 8.45862C6.38535 7.92032 6.64965 7.42587 7.03774 7.03778C7.42583 6.64969 7.92029 6.38539 8.45858 6.27832C8.99688 6.17124 9.55484 6.2262 10.0619 6.43623C10.569 6.64627 11.0024 7.00194 11.3073 7.45829C11.6122 7.91464 11.775 8.45115 11.775 9C11.775 9.36442 11.7032 9.72527 11.5637 10.0619C11.4243 10.3986 11.2199 10.7045 10.9622 10.9622C10.7045 11.2199 10.3986 11.4243 10.0619 11.5638C9.72523 11.7032 9.36438 11.775 8.99996 11.775Z" fill="black"/>
</svg>
