<svg width="28" height="22" viewBox="0 0 28 22" fill="none" xmlns="http://www.w3.org/2000/svg">
<path d="M23.3332 0.333332H4.6665C3.60564 0.333332 2.58822 0.75476 1.83808 1.5049C1.08793 2.25505 0.666504 3.27247 0.666504 4.33333V17.6667C0.666504 18.7275 1.08793 19.7449 1.83808 20.4951C2.58822 21.2452 3.60564 21.6667 4.6665 21.6667H23.3332C24.394 21.6667 25.4115 21.2452 26.1616 20.4951C26.9117 19.7449 27.3332 18.7275 27.3332 17.6667V4.33333C27.3332 3.27247 26.9117 2.25505 26.1616 1.5049C25.4115 0.75476 24.394 0.333332 23.3332 0.333332ZM22.7865 3L14.9465 10.84C14.8226 10.965 14.6751 11.0642 14.5126 11.1319C14.3501 11.1995 14.1759 11.2344 13.9998 11.2344C13.8238 11.2344 13.6495 11.1995 13.4871 11.1319C13.3246 11.0642 13.1771 10.965 13.0532 10.84L5.21317 3H22.7865ZM24.6665 17.6667C24.6665 18.0203 24.526 18.3594 24.276 18.6095C24.0259 18.8595 23.6868 19 23.3332 19H4.6665C4.31288 19 3.97374 18.8595 3.7237 18.6095C3.47365 18.3594 3.33317 18.0203 3.33317 17.6667V4.88L11.1732 12.72C11.9232 13.4691 12.9398 13.8898 13.9998 13.8898C15.0598 13.8898 16.0765 13.4691 16.8265 12.72L24.6665 4.88V17.6667Z" fill="#9A95C6"/>
</svg>
