<svg width="302" height="199" viewBox="0 0 302 199" fill="none" xmlns="http://www.w3.org/2000/svg">
<path d="M240.813 119.727L240.222 125.367C238.685 129.04 237.148 132.712 235.613 136.38C235.077 137.669 234.538 138.955 233.998 140.239C233.752 140.839 233.405 141.393 232.97 141.874C232.948 141.906 232.92 141.933 232.886 141.953C232.853 141.973 232.815 141.984 232.776 141.987C232.646 141.987 232.599 141.814 232.589 141.684C232.515 140.293 232.349 138.908 232.092 137.539C230.653 130.927 222.977 128.504 216.957 128.654C214.548 128.691 212.175 129.241 209.995 130.266C206.851 131.788 205.626 136.02 205.459 136.177L205.326 136.721L203.17 145.702C202.716 147.704 202.369 148.762 200.52 149.296C200.46 149.316 198.618 150.297 198.558 150.297C197.843 150.498 199.799 150.067 199.025 149.937L196.572 149.553L195.527 149.313L180.285 145.705C180.876 145.805 181.48 145.915 182.094 146.039L185.632 146.883L184.697 142.398C182.264 128.434 186.296 115.765 193.164 108.887C194.973 107.078 195.871 106.614 197.98 105.409L199.165 108.216C199.165 108.216 211.286 111.83 214.143 100.74C215.298 100.84 217.517 100.824 218.662 101.074C224.629 102.325 230.019 105.506 233.998 110.125C234.348 110.526 234.692 110.939 235.032 111.36L235.212 111.58C235.423 111.844 235.646 112.114 235.857 112.384L236.007 112.598C237.751 114.875 239.356 117.256 240.813 119.727Z" fill="#3F3F46"/>
<path d="M96.7837 61.3488C98.706 51.7371 106.869 42.4257 130.184 40.2931C182.008 35.5573 153.994 21.2698 170.868 5.63406C187.741 -10.0017 251.543 15.7231 234.852 55.8988C218.162 96.0746 273.259 51.4834 296.594 102.372C299.975 109.757 301.603 117.823 301.35 125.941C301.056 134.518 298.847 142.921 294.886 150.534C287.433 165.092 273.59 178.061 253.569 186.098C250.614 187.302 247.521 188.384 244.291 189.345" stroke="#DDDCEC" stroke-miterlimit="10"/>
<path d="M260.944 140.399C260.541 145.115 257.343 145.883 257.343 145.883C254.64 147.481 250.488 145.763 249.651 142.766C249.638 142.734 249.631 142.7 249.631 142.666C248.963 140.099 247.661 136.802 245.913 133.194C242.542 125.037 238.16 116.814 232.54 110.309C228.56 105.69 223.171 102.51 217.204 101.258C217.184 101.258 217.174 101.238 217.154 101.238C209.241 98.8554 205.39 93.9894 203.721 89.3237C203.721 89.3237 203.721 89.3237 203.721 89.3037C203.007 86.3568 202.279 83.4833 202.67 81.7445C203.337 78.6974 203.671 75.4034 202.84 74.7359C201.795 73.8615 199.906 74.509 195.101 75.4768C190.939 76.3312 188.719 75.8473 188.219 73.3042C188.14 72.9097 188.099 72.5082 188.099 72.106C188.079 72.3597 187.097 71.3518 187.051 71.5921C186.737 72.8903 186.11 73.411 184.741 73.9817C182.709 74.826 181.878 78.0867 181.577 80.2593C181.264 82.5721 182.305 85.7627 183.129 87.9354C182.075 86.7306 180.867 86.8707 178.978 87.6016C178.504 87.7818 177.309 87.7318 176.364 87.4014C176.498 87.2869 176.655 87.2035 176.825 87.1577C177.129 87.0576 174.926 85.963 175.246 85.8929C178.454 85.1687 180.252 82.4954 179.872 80.1425C178.927 74.2186 180.186 67.2501 184.187 62.6345C188.599 57.5583 195.798 56.5036 201.892 58.8265C206.678 60.6454 211.204 64.3766 212.862 69.3527C212.862 69.3727 212.862 69.3927 212.882 69.4127C213.093 70.0455 213.255 70.694 213.366 71.3518C213.977 75.053 212.672 78.8042 211.948 82.462C211.687 83.7803 212.348 85.2187 212.488 86.2633C213.293 92.5377 220.535 94.3098 226.265 96.9731C238.31 102.583 248.145 112.175 254.76 123.839C259.152 131.562 260.721 136.828 260.944 140.399Z" fill="#463F80"/>
<path d="M197.446 104.164C197.316 104.234 197.186 104.304 197.065 104.384C194.902 105.624 192.914 107.146 191.151 108.91C184.286 115.788 180.255 128.457 182.688 142.421L183.622 146.883" stroke="#18181B" stroke-miterlimit="10"/>
<path d="M258.188 197.859C258.189 187.434 257.288 177.03 255.495 166.761C254.295 159.793 252.643 152.911 250.548 146.159C249.29 142.057 247.752 137.632 245.923 133.19C244.224 129.033 242.262 124.988 240.049 121.082C237.903 117.256 235.391 113.647 232.55 110.305C228.57 105.686 223.181 102.505 217.214 101.254C216.07 101.011 214.912 100.838 213.747 100.733" stroke="#18181B" stroke-miterlimit="10"/>
<path d="M134.831 107.138L134.661 107.108C132.622 106.767 130.531 106.942 128.578 107.618C126.625 108.295 124.874 109.451 123.484 110.98L112.07 123.415L110.735 124.883C110.652 124.973 110.574 125.068 110.501 125.167" stroke="#18181B" stroke-miterlimit="10"/>
<path d="M118.346 128.415L124.611 121.466L124.621 121.456" stroke="#18181B" stroke-miterlimit="10"/>
<path d="M172.84 164.304L202.306 174.687C205.144 175.687 208.164 176.064 211.16 175.793C214.157 175.522 217.06 174.609 219.672 173.115C222.284 171.622 224.543 169.583 226.298 167.139C228.051 164.694 229.258 161.901 229.837 158.948L236.808 123.358C237.165 121.53 237.148 119.649 236.759 117.828C236.37 116.007 235.618 114.284 234.546 112.761C234.246 112.333 233.921 111.922 233.571 111.533" stroke="#18181B" stroke-miterlimit="10"/>
<path d="M153.339 162.87C149.588 165.403 146.831 173.095 145.366 178.145C145.115 178.992 144.596 179.734 143.887 180.261C143.178 180.788 142.318 181.072 141.434 181.068C140.836 181.068 140.246 180.939 139.702 180.688C138.869 180.297 138.192 179.637 137.78 178.814C137.368 177.991 137.246 177.054 137.433 176.152C139.886 164.158 148.543 140.479 178.283 145.699C178.877 145.799 179.481 145.909 180.092 146.032L183.623 146.883L193.525 149.296L196.195 149.94C197.208 150.186 198.269 150.148 199.262 149.83C199.323 149.818 199.383 149.802 199.442 149.78C200.357 149.467 201.177 148.927 201.827 148.212C202.478 147.496 202.937 146.629 203.163 145.689L205.416 136.317L205.546 135.773L208.496 123.521" stroke="#18181B" stroke-miterlimit="10"/>
<path d="M138.836 124.466H128.743C127.593 124.466 126.489 124.009 125.675 123.195C124.862 122.382 124.405 121.278 124.405 120.128C124.405 118.977 124.862 117.874 125.675 117.06C126.489 116.246 127.593 115.789 128.743 115.789H143.041" stroke="#18181B" stroke-miterlimit="10"/>
<path d="M131.089 124.462C130.946 126.231 130.271 127.539 129.277 128.443C126.714 130.78 122.018 130.513 118.751 128.914" stroke="#18181B" stroke-miterlimit="10"/>
<path d="M112.082 123.411C109.189 119.913 109.78 115.171 112.026 111.506C118.397 101.107 132.955 103.103 142.396 107.425C150.045 110.916 156.747 116.162 163.272 121.395C166.459 123.952 169.589 126.615 172.616 129.405C173.172 129.908 173.835 130.278 174.554 130.488C175.274 130.698 176.031 130.742 176.77 130.616C177.509 130.491 178.21 130.2 178.82 129.765C179.43 129.33 179.934 128.762 180.292 128.103C181.961 125.023 183.767 121.662 184.107 120.731" stroke="#18181B" stroke-miterlimit="10"/>
<path d="M129.28 128.444C129.28 128.444 144.335 136.611 155.519 148.345" stroke="#18181B" stroke-miterlimit="10"/>
<path d="M149.665 167.298C147.996 170.149 149.431 174.334 152.585 175.335C156.613 176.635 160.871 177.061 165.077 176.586C169.666 176.052 172.716 172.264 174.725 167.926C174.87 167.603 174.947 167.253 174.948 166.899C174.949 166.545 174.876 166.195 174.733 165.871C174.59 165.547 174.381 165.257 174.119 165.019C173.856 164.781 173.547 164.602 173.21 164.492C172.603 164.292 171.943 164.328 171.361 164.593C170.78 164.859 170.32 165.334 170.073 165.923C169.405 167.465 168.374 169.394 167.006 170.262" stroke="#18181B" stroke-miterlimit="10"/>
<path d="M157.525 166.764C157.525 166.764 153.403 171.196 156.654 175.888C156.797 176.085 156.965 176.263 157.154 176.415" stroke="#18181B" stroke-miterlimit="10"/>
<path d="M162.961 167.495C162.961 167.495 159.15 176.072 164.039 176.7" stroke="#18181B" stroke-miterlimit="10"/>
<path d="M298.276 197.866H62.2415" stroke="#18181B" stroke-miterlimit="10"/>
<path d="M155.099 181.702H131.56C131.321 183.924 130.268 185.979 128.604 187.472C126.941 188.964 124.784 189.788 122.549 189.785H43.4323C43.4366 191.925 44.2886 193.976 45.8015 195.489C47.3147 197.002 49.3655 197.854 51.5054 197.858H155.099C157.242 197.857 159.297 197.008 160.816 195.494C162.334 193.981 163.191 191.928 163.199 189.785V184.358C163.199 183.65 162.917 182.971 162.416 182.47C161.916 181.97 161.237 181.688 160.529 181.688L155.099 181.702Z" stroke="#18181B" stroke-miterlimit="10"/>
<path d="M118.751 128.914C119.444 129.873 119.943 130.96 120.219 132.111L131.37 178.615C131.616 179.624 131.68 180.67 131.56 181.702C131.321 183.924 130.268 185.979 128.605 187.471C126.941 188.964 124.784 189.788 122.549 189.785H41.9637C39.9286 189.785 37.9528 189.099 36.3549 187.838C34.7569 186.578 33.6302 184.816 33.1563 182.836L22.0261 136.336C21.706 135.005 21.6923 133.618 21.9857 132.281C22.279 130.943 22.8718 129.69 23.7198 128.614C24.5675 127.539 25.6482 126.67 26.8803 126.073C28.1125 125.475 29.4641 125.165 30.8335 125.166H111.412C112.736 125.163 114.044 125.453 115.243 126.014C116.441 126.576 117.501 127.395 118.347 128.413L118.751 128.914Z" stroke="#18181B" stroke-miterlimit="10"/>
<path d="M106.128 71.0403C105.614 70.4363 105.074 69.8556 104.51 69.2915C101.345 66.1157 97.5836 63.5962 93.4422 61.8778C89.3008 60.1597 84.8608 59.2766 80.377 59.2793H38.132C33.6495 59.2776 29.2104 60.159 25.0687 61.8738C20.9273 63.5886 17.164 66.1026 13.9945 69.2725C10.825 72.4424 8.31128 76.2057 6.59701 80.3474C4.88272 84.4894 4.00148 88.9285 4.00368 93.411V93.6546C3.99937 96.8349 4.80936 99.9637 6.35655 102.742C8.09518 104.513 10.1704 105.918 12.4602 106.874C14.75 107.831 17.2079 108.32 19.6895 108.313H61.1067C62.3706 108.313 63.5831 108.814 64.4769 109.708C65.3706 110.602 65.8726 111.814 65.8726 113.078C65.8742 114.344 66.3782 115.557 67.2736 116.451C68.169 117.345 69.3829 117.848 70.6484 117.848H70.7519L80.9777 117.587C80.9777 117.487 80.9577 117.397 80.9577 117.307C80.0736 117.003 79.3066 116.43 78.764 115.669C78.2213 114.908 77.93 113.996 77.9306 113.062V112.841C77.9316 111.578 78.4339 110.366 79.3273 109.472C80.2211 108.579 81.4329 108.076 82.6965 108.076H92.7788C97.7355 108.076 102.489 106.107 105.994 102.602C109.499 99.0966 111.468 94.3428 111.468 89.3861C111.486 82.8851 109.632 76.5164 106.128 71.0403ZM32.9724 90.8145C31.3561 90.8152 29.7758 90.3362 28.4318 89.4388C27.0875 88.541 26.0399 87.2648 25.4211 85.7717C24.8027 84.2785 24.6409 82.6355 24.9562 81.0502C25.2716 79.465 26.0499 78.0088 27.1933 76.8661C28.3364 75.7234 29.7928 74.9458 31.3781 74.6307C32.9634 74.316 34.6064 74.4785 36.0995 75.098C37.5924 75.7174 38.8682 76.7653 39.765 78.11C40.6621 79.4546 41.1404 81.0349 41.139 82.6512C41.1363 84.8158 40.275 86.8914 38.7441 88.4216C37.2129 89.9521 35.1374 90.8125 32.9724 90.8145ZM59.6283 90.8145C58.0123 90.8138 56.4327 90.3339 55.0894 89.4355C53.7464 88.537 52.6995 87.2605 52.0821 85.767C51.4643 84.2738 51.3034 82.6308 51.6195 81.0459C51.9355 79.4613 52.7148 78.0058 53.8582 76.8638C55.0016 75.7217 56.4577 74.9444 58.043 74.6304C59.6283 74.316 61.2709 74.4792 62.7634 75.0986C64.2563 75.718 65.5315 76.7663 66.4282 78.1106C67.325 79.4549 67.8029 81.0352 67.8016 82.6512C67.8016 83.7238 67.59 84.7865 67.1792 85.7773C66.7683 86.7685 66.1663 87.6687 65.407 88.4269C64.6481 89.1852 63.747 89.7862 62.7554 90.1957C61.7639 90.6056 60.7012 90.8158 59.6283 90.8145ZM85.016 90.8145C83.4 90.8132 81.8211 90.3326 80.4781 89.4338C79.1354 88.535 78.0892 87.2582 77.4721 85.7647C76.855 84.2715 76.6945 82.6285 77.0108 81.0439C77.3276 79.4596 78.1068 78.0042 79.2502 76.8628C80.394 75.721 81.8501 74.9441 83.4354 74.63C85.0203 74.3163 86.663 74.4792 88.1555 75.099C89.6476 75.7184 90.9228 76.7667 91.8196 78.111C92.716 79.4553 93.1939 81.0352 93.1926 82.6512C93.1926 83.7242 92.981 84.7868 92.5698 85.778C92.159 86.7696 91.5563 87.67 90.797 88.4282C90.0374 89.1865 89.136 89.7872 88.1441 90.1967C87.1522 90.6062 86.0893 90.8162 85.016 90.8145Z" fill="#BCB9D9"/>
<path d="M111.468 89.3894C111.468 94.3461 109.499 99.1 105.994 102.605C102.489 106.11 97.7355 108.079 92.7788 108.079H82.7031C81.4399 108.08 80.2288 108.582 79.3354 109.475C78.4419 110.367 77.939 111.578 77.9373 112.841V113.062C77.9367 113.996 78.228 114.908 78.7707 115.669C79.3133 116.43 80.0803 117.003 80.9644 117.307C81.4299 117.469 81.9199 117.55 82.4128 117.547L80.9844 117.587L70.7519 117.848H70.6417C69.3769 117.848 68.1637 117.346 67.2683 116.452C66.3729 115.559 65.8686 114.347 65.8659 113.082C65.8659 111.817 65.364 110.605 64.4699 109.712C63.5761 108.818 62.364 108.316 61.1001 108.316H19.6895C14.7327 108.316 9.979 106.347 6.47402 102.842C2.96907 99.3369 1 94.5831 1 89.6264V89.3828C1.00043 84.9029 1.88321 80.4675 3.59787 76.3288C5.31253 72.1904 7.82557 68.4302 10.9934 65.263C14.1613 62.0958 17.922 59.5837 22.0607 57.8696C26.1995 56.1558 30.6355 55.2737 35.115 55.2744H77.3466C86.3947 55.2751 95.0723 58.8695 101.471 65.2669C107.87 71.6644 111.466 80.341 111.468 89.3894Z" stroke="#18181B" stroke-miterlimit="10"/>
<path d="M217.205 101.244C217.185 101.244 217.175 101.224 217.155 101.224C209.242 98.8408 205.39 93.9749 203.721 89.3092C203.721 89.3092 203.721 89.3092 203.721 89.2892C202.417 85.6514 202.447 82.1304 202.917 80.0278C203.199 78.9142 203.378 77.7771 203.451 76.6304C203.561 73.3831 201.178 74.1774 194.363 75.5357C191.233 76.1698 189.23 74.9817 188.229 73.293C188.132 73.1458 188.047 72.9906 187.976 72.8291C187.509 71.8462 187.315 70.7555 187.415 69.6719" stroke="#18181B" stroke-miterlimit="10"/>
<path d="M183.493 88.3752C183.373 88.205 183.25 88.0415 183.129 87.9113C182.075 86.7065 180.867 86.8467 178.978 87.5776C178.504 87.7578 177.309 87.7077 176.365 87.3773C175.57 87.0936 174.976 86.603 175.247 85.8688C175.316 85.7176 175.419 85.5848 175.548 85.48C175.677 85.3752 175.829 85.3014 175.991 85.2647C176.305 85.1853 176.624 85.1216 176.945 85.0745C180.186 84.3503 179.462 80.599 179.068 78.2462C178.113 72.3256 179.382 65.3571 183.423 60.7414C187.875 55.6652 195.157 54.6073 201.308 56.9301C206.718 58.9726 211.808 63.4047 212.862 69.3286C212.862 69.3486 212.862 69.3686 212.882 69.3887C212.902 69.4087 212.882 69.4387 212.882 69.4588C213.507 73.1599 212.882 77.1715 212.158 80.8327C211.724 83.002 211.888 84.7741 212.492 86.2393C214.384 91.0351 220.769 92.7072 225.915 95.0801C238.093 100.69 248.015 110.282 254.704 121.946C259.983 131.198 261.235 136.888 260.945 140.399C260.541 145.115 257.343 145.882 257.343 145.882C254.64 147.481 250.485 145.762 249.651 142.765C249.638 142.733 249.631 142.699 249.631 142.665C248.963 140.098 247.662 136.801 245.913 133.193" stroke="#18181B" stroke-miterlimit="10"/>
<path d="M187.401 69.6719C187.401 71.4574 186.56 73.2195 184.731 73.9705C182.675 74.8182 181.841 77.0509 181.54 79.2235C181.12 82.4051 181.805 85.634 183.479 88.3714C185.031 90.9479 187.558 93.788 191.135 93.788C197.69 93.788 200.5 90.6275 200.5 90.6275" stroke="#18181B" stroke-miterlimit="10"/>
<path d="M194.206 80.2489C194.822 80.2489 195.321 79.75 195.321 79.1342C195.321 78.5188 194.822 78.0195 194.206 78.0195C193.591 78.0195 193.091 78.5188 193.091 79.1342C193.091 79.75 193.591 80.2489 194.206 80.2489Z" fill="#18181B"/>
<path d="M184.401 80.8993C185.017 80.8993 185.516 80.4004 185.516 79.7846C185.516 79.1692 185.017 78.6699 184.401 78.6699C183.786 78.6699 183.286 79.1692 183.286 79.7846C183.286 80.4004 183.786 80.8993 184.401 80.8993Z" fill="#18181B"/>
<path d="M189.21 78.0859C189.21 78.0859 188.653 82.488 188.876 83.0921C189.1 83.6961 190.495 83.0053 190.495 83.0053" stroke="#18181B" stroke-miterlimit="10"/>
<path d="M191.276 86.857C193.662 87.7347 196.125 86.6167 196.846 84.4707" stroke="#18181B" stroke-miterlimit="10"/>
<path d="M199.975 80.7448C201.594 78.4534 201.004 75.2521 198.657 73.5938C196.31 71.9357 193.095 72.449 191.476 74.7405C189.858 77.0316 190.448 80.2332 192.795 81.8912C195.142 83.5492 198.357 83.036 199.975 80.7448Z" stroke="#18181B" stroke-miterlimit="10"/>
<path d="M186.94 81.4001C188.559 79.1086 187.968 75.907 185.622 74.249C183.274 72.591 180.06 73.1043 178.441 75.3958C176.822 77.6869 177.413 80.8885 179.76 82.5465C182.107 84.2045 185.321 83.6912 186.94 81.4001Z" stroke="#18181B" stroke-miterlimit="10"/>
<path d="M182.599 74.8582C183.526 74.8555 184.42 75.2036 185.101 75.8324C185.782 76.4615 186.2 77.3245 186.27 78.249C186.307 78.7082 186.252 79.1701 186.106 79.607C185.96 80.0442 185.728 80.447 185.423 80.7921C185.114 81.1419 184.738 81.4255 184.317 81.6261C183.896 81.827 183.439 81.9405 182.973 81.9602H182.786C181.859 81.9629 180.965 81.6144 180.283 80.9847C179.602 80.3549 179.185 79.4908 179.115 78.566C179.079 78.1068 179.135 77.6446 179.282 77.2077C179.428 76.7708 179.66 76.3677 179.966 76.0229C180.275 75.6742 180.65 75.3912 181.07 75.1903C181.491 74.9897 181.947 74.8755 182.412 74.8548H182.599V74.8582ZM182.599 74.1006H182.376C181.813 74.1256 181.261 74.2638 180.753 74.5061C180.245 74.7487 179.79 75.0908 179.417 75.5123C179.043 75.9338 178.758 76.4261 178.578 76.9598C178.399 77.4934 178.328 78.0578 178.371 78.6195C178.461 79.7321 178.966 80.7701 179.786 81.528C180.605 82.2859 181.68 82.7081 182.796 82.7111H183.02C183.582 82.6857 184.134 82.5479 184.642 82.3053C185.151 82.063 185.605 81.7209 185.979 81.2994C186.352 80.8779 186.637 80.3856 186.817 79.852C186.997 79.3183 187.067 78.7539 187.025 78.1923C186.934 77.0796 186.429 76.0416 185.61 75.2837C184.79 74.5258 183.716 74.1036 182.599 74.1006Z" fill="white"/>
<path d="M190.578 78.0156L187.842 78.1558" stroke="#18181B" stroke-miterlimit="10"/>
<path opacity="0.53" d="M199.324 80.285C200.695 78.3446 200.195 75.6333 198.208 74.2296C196.221 72.8259 193.499 73.2607 192.128 75.2011C190.757 77.1418 191.257 79.8528 193.244 81.2568C195.231 82.6605 197.953 82.2257 199.324 80.285Z" fill="white"/>
<path opacity="0.53" d="M186.289 80.9394C187.66 78.9991 187.16 76.2878 185.173 74.884C183.186 73.48 180.464 73.9152 179.093 75.8555C177.722 77.7962 178.221 80.5072 180.209 81.911C182.196 83.315 184.918 82.8798 186.289 80.9394Z" fill="white"/>
<path d="M193.088 93.7881L199.165 108.226C199.165 108.226 210.889 111.38 213.74 100.286" stroke="#18181B" stroke-miterlimit="10"/>
<path d="M77.7775 168.615C82.3675 167.168 84.7698 161.813 83.1438 156.656C81.5174 151.498 76.4783 148.49 71.8883 149.937C67.2987 151.385 64.8961 156.739 66.5225 161.897C68.1484 167.054 73.1876 170.062 77.7775 168.615Z" fill="#BCB9D9"/>
<path d="M191.465 197.859C191.335 186.108 189.263 174.497 188.308 169.758" stroke="#18181B" stroke-miterlimit="10"/>
</svg>
