<svg width="18" height="18" viewBox="0 0 18 18" fill="none" xmlns="http://www.w3.org/2000/svg">
<path d="M15.8025 12.6225L14.25 11.0325C13.916 10.715 13.4948 10.5047 13.0404 10.4285C12.586 10.3524 12.1192 10.4138 11.7 10.605L11.025 9.92999C11.8204 8.86717 12.1837 7.54249 12.0416 6.22261C11.8996 4.90273 11.2629 3.68565 10.2596 2.81639C9.25626 1.94712 7.96089 1.4902 6.63424 1.53762C5.30759 1.58505 4.04815 2.13328 3.10947 3.07196C2.17079 4.01065 1.62255 5.27008 1.57513 6.59674C1.52771 7.92339 1.98462 9.21875 2.85389 10.2221C3.72316 11.2254 4.94024 11.8621 6.26012 12.0041C7.58 12.1462 8.90468 11.7829 9.96749 10.9875L10.635 11.655C10.4213 12.0747 10.3447 12.5509 10.416 13.0165C10.4874 13.482 10.703 13.9135 11.0325 14.25L12.6225 15.84C13.0444 16.2613 13.6162 16.498 14.2125 16.498C14.8087 16.498 15.3806 16.2613 15.8025 15.84C16.0168 15.6304 16.1871 15.3802 16.3033 15.1039C16.4196 14.8277 16.4795 14.531 16.4795 14.2312C16.4795 13.9315 16.4196 13.6348 16.3033 13.3585C16.1871 13.0823 16.0168 12.832 15.8025 12.6225ZM9.44249 9.44249C8.91767 9.96599 8.24947 10.3222 7.5223 10.4661C6.79513 10.6101 6.04161 10.5352 5.35694 10.2511C4.67227 9.96702 4.08716 9.48637 3.67553 8.86989C3.26389 8.25341 3.0442 7.52876 3.0442 6.78749C3.0442 6.04621 3.26389 5.32156 3.67553 4.70508C4.08716 4.0886 4.67227 3.60795 5.35694 3.32385C6.04161 3.03974 6.79513 2.96492 7.5223 3.10885C8.24947 3.25278 8.91767 3.60899 9.44249 4.13249C9.79172 4.48083 10.0688 4.89465 10.2578 5.35023C10.4469 5.80582 10.5442 6.29423 10.5442 6.78749C10.5442 7.28074 10.4469 7.76915 10.2578 8.22474C10.0688 8.68033 9.79172 9.09414 9.44249 9.44249ZM14.745 14.745C14.6753 14.8153 14.5923 14.8711 14.5009 14.9092C14.4095 14.9472 14.3115 14.9668 14.2125 14.9668C14.1135 14.9668 14.0155 14.9472 13.9241 14.9092C13.8327 14.8711 13.7497 14.8153 13.68 14.745L12.09 13.155C12.0197 13.0853 11.9639 13.0023 11.9258 12.9109C11.8877 12.8195 11.8681 12.7215 11.8681 12.6225C11.8681 12.5235 11.8877 12.4254 11.9258 12.3341C11.9639 12.2427 12.0197 12.1597 12.09 12.09C12.1597 12.0197 12.2427 11.9639 12.3341 11.9258C12.4255 11.8877 12.5235 11.8681 12.6225 11.8681C12.7215 11.8681 12.8195 11.8877 12.9109 11.9258C13.0023 11.9639 13.0853 12.0197 13.155 12.09L14.745 13.68C14.8153 13.7497 14.8711 13.8327 14.9092 13.9241C14.9472 14.0154 14.9668 14.1135 14.9668 14.2125C14.9668 14.3115 14.9472 14.4095 14.9092 14.5009C14.8711 14.5923 14.8153 14.6753 14.745 14.745Z" fill="#574FA0"/>
</svg>
