<svg width="544" height="535" viewBox="0 0 544 535" fill="none" xmlns="http://www.w3.org/2000/svg">
<path d="M423.584 116.298C421.097 109.397 418.329 102.544 415.299 95.8823C409.261 82.6247 407.874 70.0608 399.392 58.9739" stroke="#DDDCEC" stroke-width="4" stroke-miterlimit="10"/>
<path d="M379.731 46.2665C372.432 38.8394 365.606 30.8561 353.202 24.894C326.989 12.336 293.471 11.0623 250.688 28.8228" stroke="#DDDCEC" stroke-width="4" stroke-miterlimit="10"/>
<path d="M70.8215 532.987C29.3652 474.366 15.9569 408.09 22.8852 340.307" stroke="#DDDCEC" stroke-width="4" stroke-miterlimit="10"/>
<path d="M446.909 244.401V245.124C446.503 258.28 458.655 312.818 493.124 330.142C527.592 347.466 552.167 423.507 474.455 453.341C396.743 483.175 400.975 532.988 400.975 532.988" stroke="#DDDCEC" stroke-width="4" stroke-miterlimit="10"/>
<path d="M250.681 85.1303V20.702C250.67 16.2758 248.907 12.034 245.779 8.90411C242.65 5.77426 238.41 4.01106 233.985 4H20.6961C16.2714 4.01106 12.0311 5.77426 8.90236 8.90411C5.77362 12.034 4.01106 16.2758 4 20.702V323.647C4.00789 328.071 5.77063 332.311 8.9011 335.436C12.0315 338.561 16.2737 340.315 20.6961 340.313H233.985C236.054 340.327 238.105 339.932 240.022 339.153" stroke="black" stroke-width="7.24" stroke-linecap="round" stroke-linejoin="round"/>
<path d="M228.276 14.208H26.4055C18.1683 14.208 11.4907 20.8879 11.4907 29.128V315.216C11.4907 323.456 18.1683 330.136 26.4055 330.136H228.276C236.514 330.136 243.191 323.456 243.191 315.216V29.128C243.191 20.8879 236.514 14.208 228.276 14.208Z" fill="#574FA0"/>
<path d="M224.625 38.654H32.5926C28.4724 38.654 25.1323 41.9956 25.1323 46.117V90.3448C25.1323 94.4668 28.4724 97.8078 32.5926 97.8078H224.625C228.744 97.8078 232.085 94.4668 232.085 90.3448V46.117C232.085 41.9956 228.744 38.654 224.625 38.654Z" fill="#574FA0"/>
<path d="M127.342 63.5666C130.719 63.5666 133.457 60.8277 133.457 57.4491C133.457 54.0704 130.719 51.3315 127.342 51.3315C123.964 51.3315 121.227 54.0704 121.227 57.4491C121.227 60.8277 123.964 63.5666 127.342 63.5666Z" fill="#DDDCEC"/>
<path d="M110.249 85.1303C110.249 80.5957 112.049 76.2471 115.254 73.0412C118.46 69.8347 122.807 68.0336 127.339 68.0336C131.872 68.0336 136.219 69.8347 139.424 73.0412C142.629 76.2471 144.43 80.5957 144.43 85.1303H110.249Z" fill="#DDDCEC"/>
<path d="M128.584 161.189C122.064 161.186 115.69 163.117 110.268 166.738C104.845 170.359 100.619 175.508 98.1221 181.533C95.6258 187.558 94.9718 194.188 96.2427 200.584C97.5136 206.981 100.653 212.857 105.263 217.469C109.873 222.08 115.747 225.221 122.141 226.492C128.535 227.764 135.163 227.109 141.186 224.612C147.208 222.115 152.355 217.886 155.975 212.462C159.595 207.037 161.525 200.661 161.522 194.139C161.517 185.402 158.045 177.024 151.869 170.845C145.693 164.667 137.318 161.194 128.584 161.189ZM128.584 219.141C127.308 219.141 126.085 218.635 125.183 217.732C124.282 216.83 123.775 215.607 123.775 214.33C123.775 213.055 124.282 211.831 125.183 210.929C126.085 210.027 127.308 209.52 128.584 209.52C129.86 209.52 131.083 210.027 131.985 210.929C132.886 211.831 133.393 213.055 133.393 214.33C133.393 215.607 132.886 216.83 131.985 217.732C131.083 218.635 129.86 219.141 128.584 219.141ZM134.687 182.066C133.653 189.206 132.78 196.734 130.682 203.677C130.168 205.328 127.036 205.328 126.498 203.677C124.994 198.452 123.84 193.131 123.042 187.752C122.397 183.842 120.107 177.515 122.301 173.7C124.208 170.309 129.63 169.89 132.762 171.666C136.654 173.903 135.136 178.537 134.687 182.089V182.066Z" fill="#DDDCEC"/>
<path d="M45.8262 124.215H206.743" stroke="white" stroke-width="7.24" stroke-miterlimit="10"/>
<path d="M45.8262 140.056H206.743" stroke="white" stroke-width="7.24" stroke-miterlimit="10"/>
<path d="M45.8262 242.093H206.743" stroke="white" stroke-width="7.24" stroke-miterlimit="10"/>
<path d="M83.2061 257.078H169.364" stroke="white" stroke-width="7.24" stroke-miterlimit="10"/>
<path d="M62.9233 355.216C62.9233 355.216 91.5571 241.393 180.74 213.592L216.99 204.939C216.99 204.939 222.723 179.327 220.612 176.636C218.502 173.945 214.168 168.431 206.23 169.627C198.291 170.823 177.769 171.206 172.515 146.108C167.26 121.01 186.676 61.3539 237.135 52.4318C287.594 43.5097 288.772 80.5735 288.772 80.5735L251.709 166.488L257.46 235.796L258.183 339.04L62.9233 355.216Z" fill="white"/>
<path d="M371.111 267.286C370.513 267.46 362.886 269.678 359.885 274.964C359.313 273.754 358.41 272.732 357.28 272.016C356.149 271.3 354.838 270.921 353.5 270.922H263.923C262.329 270.919 260.781 271.458 259.534 272.45C258.286 273.441 257.412 274.828 257.054 276.382L239.414 352.046C238.218 351.813 237.023 351.669 235.779 351.55L194.15 341.157C192.364 340.708 190.475 340.942 188.853 341.813C187.23 342.683 185.99 344.127 185.374 345.863C185.097 346.642 184.959 347.464 184.968 348.291C184.968 350.169 185.68 351.977 186.96 353.351C188.24 354.725 189.993 355.562 191.866 355.694L211.551 356.962C192.589 365.89 169.521 382.897 150.266 398.523C131.532 369.179 149.113 339.841 162.336 324.042C160.632 306.628 152 266.198 108.93 267.298C123.767 248.264 142.268 231.951 165.193 221.031C243.718 308.099 333.552 236.914 335.459 235.383C348.894 244.15 360.915 254.911 371.111 267.298" fill="#2E2E2E"/>
<path d="M362.95 517.057V532.103H103.626V510.79C113.729 511.388 124.358 508.996 134.024 504.637C146.26 499.064 156.829 490.405 165.868 480.526C175.163 470.3 180.268 456.122 186.192 443.791C195.087 425.223 206.869 411.995 225.568 406.392L224.373 411.535C224.133 412.57 224.129 413.646 224.362 414.683C224.596 415.72 225.059 416.691 225.719 417.523C226.379 418.356 227.219 419.029 228.174 419.492C229.131 419.956 230.179 420.198 231.241 420.2H321.267C319.474 435.748 311.912 520.663 362.95 517.075" fill="#2E2E2E"/>
<path d="M321.308 121.356C321.236 129.401 320.188 137.407 318.188 145.198C317.276 148.893 315.317 152.245 312.547 154.853C309.778 157.462 306.315 159.215 302.574 159.903C302.424 154.473 300.117 149.707 296.596 146.747C296.918 142.15 296.871 137.535 296.458 132.946C296.225 129.914 295.861 127.085 295.478 124.544C295.25 123.097 294.921 121.668 294.492 120.268C293.29 118.977 291.875 117.902 290.307 117.093C284.766 113.971 273.36 110.652 252.228 115.532C248.778 116.322 245.532 117.828 242.7 119.951C242.637 119.991 242.581 120.039 242.532 120.095C240.626 121.853 238.199 124.077 235.688 125.231C233.088 126.427 230.374 126.475 228.096 123.647C228.036 123.587 228.006 123.533 227.953 123.473C226.757 121.912 225.615 119.885 223.505 119.485C219.058 118.647 216.894 123.073 216.332 126.792C215.841 130.231 216.852 133.262 218.328 136.151C219.565 138.499 221.181 140.627 223.111 142.448C223.606 142.927 224.06 143.447 224.467 144.002C224.282 144.035 224.1 144.086 223.923 144.152C223.515 144.29 223.115 144.453 222.728 144.642C217.348 147.064 213.516 153.134 213.432 160.238C213.432 160.459 204.412 160.328 203.27 160.238C198.87 159.831 194.536 158.564 191.44 155.245C182.653 145.826 182.694 131.851 186.305 120.92C189.724 110.545 194.076 100.414 199.779 91.0798C212.135 70.8794 231.306 55.9774 255.576 54.6378C261.397 54.3454 267.231 54.6863 272.978 55.6544C275.697 56.0832 278.386 56.6824 281.03 57.4484C305.772 68.2482 321.476 92.7302 321.332 121.356" fill="#2E2E2E"/>
<path d="M306.98 351.645C304.057 359.15 297.099 363.444 291.438 361.213C285.777 358.983 283.553 351.137 286.47 343.632C289.387 336.127 296.351 331.828 302.012 334.064C307.673 336.301 309.903 344.147 306.98 351.651" fill="#574FA0"/>
<path d="M322.022 418.669C322.022 418.669 306.144 529.388 369.653 517.117C432.815 504.9 456.72 247.851 273.894 210.883" stroke="black" stroke-width="4" stroke-miterlimit="10"/>
<path d="M173.329 312.076C173.329 312.076 122.087 355.305 149.698 398.54" stroke="black" stroke-width="4" stroke-miterlimit="10"/>
<path d="M323.175 387.914C322.296 387.968 321.04 387.382 320.186 387.149C319.101 386.861 318.028 386.554 316.964 386.228C310.72 384.284 304.847 381.309 299.586 377.425C298.39 376.57 296.262 376.02 294.804 376.582C293.991 376.88 293.275 377.39 292.728 378.061C292.181 378.731 291.824 379.535 291.695 380.391C291.247 383.477 293.423 386.497 295.796 388.476C298.612 390.832 301.535 393.003 304.948 394.414C308.243 395.738 311.642 396.783 315.11 397.542C316.683 397.907 318.279 398.14 319.839 398.54" stroke="black" stroke-width="4" stroke-miterlimit="10"/>
<path d="M342.841 357.96C343.487 361.369 343.959 364.909 343.636 368.372C343.367 371.302 342.315 374.722 339.057 375.434C338.438 375.598 337.795 375.656 337.156 375.607C324.89 374.884 314.781 370.644 303.238 362.296C291.695 353.948 287.63 373.173 298.175 376.582" stroke="black" stroke-width="4" stroke-miterlimit="10"/>
<path d="M298.618 390.796C298.335 390.563 298.065 390.313 297.811 390.049C292.067 384.039 291.027 396.113 297.058 399.665L297.835 400.125C298.242 400.299 298.678 400.502 299.109 400.723C299.312 400.777 299.539 400.867 299.748 400.926C305.2 403.318 311.004 404.849 316.719 406.41C311.064 404.562 305.427 402.744 299.748 400.926C299.258 400.723 298.792 400.52 298.302 400.287C298.151 400.224 297.995 400.176 297.835 400.143C297.733 400.097 297.621 400.078 297.51 400.089C297.399 400.099 297.292 400.138 297.202 400.203C297.065 400.315 296.965 400.465 296.915 400.633C295.988 402.858 296.741 405.663 297.925 407.654C299.168 409.759 301.302 411.379 303.407 412.534C309.068 415.709 315.649 417.587 322.003 418.711C323.182 418.955 324.389 419.034 325.59 418.944" stroke="black" stroke-width="4" stroke-miterlimit="10"/>
<path d="M376.85 432.644C376.85 432.644 357.369 399.431 355.199 370.554C353.872 352.68 348.623 348.895 344.869 348.638" stroke="black" stroke-width="4" stroke-miterlimit="10"/>
<path d="M339.057 375.427L342.847 357.96L344.867 348.631L359.848 279.467C360.07 278.437 360.059 277.371 359.815 276.345C359.572 275.32 359.102 274.363 358.441 273.543C357.779 272.723 356.943 272.061 355.993 271.607C355.042 271.152 354.003 270.916 352.949 270.915H263.366C261.772 270.914 260.225 271.453 258.977 272.445C257.73 273.436 256.855 274.822 256.497 276.375L238.857 352.046L225.98 407.259L224.785 412.431C224.547 413.467 224.545 414.542 224.779 415.579C225.014 416.614 225.479 417.584 226.139 418.416C226.799 419.248 227.639 419.92 228.594 420.383C229.55 420.846 230.597 421.088 231.659 421.09H321.679" stroke="black" stroke-width="4" stroke-miterlimit="10"/>
<path d="M227.989 121.656C227.989 121.656 232.729 101.545 259.498 98.8782C286.267 96.2111 292.974 116.22 292.974 116.22L292.131 118.235C292.131 118.235 256.939 104.111 237.505 124.269C237.505 124.269 230.505 127.444 227.989 121.668" fill="#574FA0"/>
<path d="M235.21 351.549L193.575 341.144C192.582 340.898 191.548 340.862 190.54 341.036C189.533 341.212 188.572 341.594 187.719 342.161C186.868 342.727 186.143 343.465 185.591 344.327C185.038 345.188 184.672 346.155 184.514 347.166C184.356 348.178 184.41 349.211 184.672 350.2C184.934 351.189 185.399 352.113 186.039 352.913C186.677 353.712 187.474 354.371 188.381 354.845C189.287 355.32 190.283 355.601 191.303 355.669L210.988 356.967" stroke="black" stroke-width="4" stroke-miterlimit="10"/>
<path d="M334.921 235.353C334.921 235.353 243.981 309.05 164.631 221.031" stroke="black" stroke-width="4" stroke-miterlimit="10"/>
<path d="M161.779 324.03C160.075 306.616 151.449 266.156 108.343 267.286" stroke="black" stroke-width="4" stroke-miterlimit="10"/>
<path d="M370.566 267.274C370.566 267.274 362.443 269.511 359.328 274.976" stroke="black" stroke-width="7.24" stroke-miterlimit="10"/>
<path d="M40.5371 531H426.651" stroke="black" stroke-width="4" stroke-miterlimit="10"/>
<path d="M296.597 146.772C300.238 149.834 302.575 154.833 302.575 160.49C302.575 169.878 296.053 177.473 287.995 177.473C287.083 177.468 286.175 177.362 285.287 177.156C294.672 169.98 296.573 146.772 296.573 146.772" fill="#574FA0"/>
<path d="M243.509 184.667C248.033 186.919 252.984 188.184 258.033 188.379C263.083 188.574 268.116 187.694 272.8 185.797C299.21 174.764 298.2 142.245 295.456 124.568C295.237 123.134 294.926 121.716 294.524 120.322V120.293C291.493 110.186 283.584 101.952 273.165 99.6138C252.984 95.0511 234.53 106.497 226.873 121.907" stroke="black" stroke-width="4" stroke-miterlimit="10"/>
<path d="M294.773 120.639C294.773 120.639 294.689 120.52 294.516 120.322V120.293C292.723 118.271 282.339 108.626 252.283 115.556C248.834 116.345 245.589 117.851 242.76 119.976C242.694 120.014 242.633 120.062 242.581 120.119" stroke="black" stroke-width="4" stroke-miterlimit="10"/>
<path d="M214.66 169.627H199.793C189.063 169.627 180.556 159.796 176.856 150.569C171.655 137.593 174.985 124.311 179.665 111.699C183.587 101.145 188.572 90.889 195.13 81.7097C209.812 61.1685 231.977 49.5315 257.455 51.6843C259.714 51.8757 261.964 52.1543 264.204 52.5215C298.415 58.0709 321.483 86.6851 321.31 121.339C321.238 129.389 320.191 137.401 318.19 145.199C317.27 148.89 315.308 152.239 312.539 154.847C309.769 157.454 306.309 159.209 302.57 159.904" stroke="black" stroke-width="4" stroke-miterlimit="10"/>
<path d="M224.481 144.003C224.071 143.447 223.617 142.925 223.124 142.442C221.192 140.624 219.576 138.499 218.341 136.151C216.865 133.263 215.855 130.231 216.345 126.793C216.895 123.097 219.059 118.648 223.518 119.485C225.628 119.892 226.752 121.913 227.966 123.474C232.581 129.454 238.935 123.444 242.832 119.832" stroke="black" stroke-width="4" stroke-miterlimit="10"/>
<path d="M296.597 146.772C300.238 149.834 302.575 154.833 302.575 160.49C302.575 169.878 296.053 177.473 287.995 177.473C287.083 177.468 286.175 177.362 285.287 177.156" stroke="black" stroke-width="7.24" stroke-miterlimit="10"/>
<path d="M265.399 158.295C268.663 160.49 276.548 162.29 274.963 155.784C273.062 148.075 270.504 131.607 286.172 130.351C286.172 130.351 293.07 130.644 296.478 132.988" stroke="black" stroke-width="4" stroke-miterlimit="10"/>
<path d="M271.299 171.182C271.299 171.182 263.408 175.368 259.499 167.026" stroke="black" stroke-width="4" stroke-miterlimit="10"/>
<path d="M255.297 141.611C254.992 144.26 256.026 146.55 257.61 146.735C259.194 146.921 260.725 144.941 261.036 142.274C261.346 139.607 260.3 137.341 258.722 137.155C257.144 136.97 255.602 138.949 255.297 141.611Z" fill="black"/>
<path d="M280.99 143.172C280.685 145.815 281.72 148.111 283.304 148.297C284.888 148.482 286.418 146.503 286.723 143.836C287.028 141.169 285.994 138.896 284.416 138.717C282.837 138.537 281.295 140.511 280.99 143.172Z" fill="black"/>
<path d="M265.399 132.043C265.399 132.043 260.569 124.592 249.624 131.66" stroke="black" stroke-width="4" stroke-miterlimit="10"/>
<path d="M273.887 185.307V226.64" stroke="black" stroke-width="4" stroke-miterlimit="10"/>
<path d="M110.539 432.644C110.539 432.644 127.569 416.498 149.687 398.558C168.942 382.933 192.034 365.896 211.002 356.974C213.429 355.844 215.784 354.833 218.074 353.984C223.536 351.901 229.4 351.083 235.224 351.592C236.443 351.692 237.656 351.855 238.859 352.082" stroke="black" stroke-width="4" stroke-miterlimit="10"/>
<path d="M225.982 407.259C207.277 412.862 195.495 426.089 186.606 444.657C180.694 456.988 175.577 471.166 166.281 481.392C157.249 491.265 146.68 499.93 134.443 505.503C112.242 515.61 84.9052 514.832 70.4807 492.856C60.7249 477.954 56.8871 459.44 54.9384 442.026C51.5908 411.762 62.1596 326.451 108.344 267.279C123.181 248.245 141.689 231.932 164.608 221.012C180.694 213.37 198.878 208.371 219.49 206.954L225.265 177.155" stroke="black" stroke-width="4" stroke-miterlimit="10"/>
<path d="M363.363 518.062V533" stroke="black" stroke-width="4" stroke-miterlimit="10"/>
<path d="M104.04 512.728V533" stroke="black" stroke-width="4" stroke-miterlimit="10"/>
<path d="M242.551 160.49C242.608 164.973 241.017 169.321 238.08 172.707C236.433 173.469 234.64 173.863 232.826 173.861C224.773 173.861 218.246 166.267 218.246 156.878C218.188 152.395 219.782 148.049 222.723 144.667C224.369 143.901 226.162 143.505 227.978 143.507C236.03 143.507 242.551 151.107 242.551 160.49Z" fill="#574FA0"/>
<path d="M227.989 177.473C236.032 177.473 242.551 169.87 242.551 160.49C242.551 151.11 236.032 143.507 227.989 143.507C219.947 143.507 213.427 151.11 213.427 160.49C213.427 169.87 219.947 177.473 227.989 177.473Z" stroke="black" stroke-width="4" stroke-miterlimit="10"/>
<path d="M401.119 12.0729C392.148 9.39762 382.585 9.44361 373.64 12.2051C364.695 14.9666 356.769 20.3197 350.865 27.5873C344.961 34.8549 341.344 43.7106 340.471 53.0346C339.598 62.3586 341.509 71.7322 345.961 79.9702C350.414 88.2076 357.209 94.9398 365.486 99.3142C373.763 103.689 383.151 105.51 392.464 104.548C401.775 103.585 410.592 99.8817 417.801 93.9059C425.008 87.9301 430.283 79.9504 432.957 70.9757C436.543 58.941 435.204 45.9746 429.233 34.9278C423.262 23.8817 413.149 15.6605 401.119 12.0729ZM377.34 91.8697C376.469 91.6096 375.658 91.1808 374.953 90.6073C374.248 90.0338 373.663 89.327 373.231 88.5275C372.799 87.728 372.529 86.8513 372.436 85.9471C372.343 85.043 372.429 84.1292 372.689 83.2585C372.949 82.3879 373.378 81.5764 373.951 80.8713C374.524 80.1663 375.23 79.5809 376.03 79.1491C377.644 78.2766 379.539 78.0811 381.297 78.6061C383.055 79.1312 384.533 80.3331 385.405 81.9483C386.277 83.5629 386.473 85.4586 385.948 87.2173C385.423 88.976 384.221 90.4542 382.607 91.3267C380.993 92.1992 379.098 92.3947 377.34 91.8697ZM401.251 43.4678C401.151 43.707 401.055 43.9403 400.964 44.1675C397.085 53.7127 392.26 62.8459 386.563 71.4302C385.183 73.5232 380.855 72.2315 380.843 69.7199C380.923 61.9148 381.522 54.1235 382.636 46.398C383.329 40.7529 382.791 31.0893 387.352 26.7478C391.399 22.8608 399.033 24.5292 402.632 28.2607C406.607 32.4049 403.164 38.9171 401.233 43.4678H401.251Z" fill="#DDDCEC"/>
<path d="M433.866 283.576C430.582 286.916 428.362 291.155 427.486 295.758C426.611 300.361 427.12 305.12 428.949 309.434C430.778 313.747 433.844 317.421 437.761 319.991C441.677 322.56 446.267 323.911 450.951 323.87C455.634 323.83 460.201 322.402 464.072 319.765C467.944 317.129 470.947 313.402 472.701 309.058C474.456 304.714 474.883 299.947 473.929 295.36C472.975 290.773 470.683 286.572 467.342 283.288C462.864 278.887 456.822 276.445 450.545 276.499C444.267 276.553 438.268 279.098 433.866 283.576ZM463.564 312.775C462.921 313.431 462.043 313.803 461.125 313.811C460.207 313.819 459.323 313.461 458.668 312.817C458.013 312.174 457.641 311.296 457.633 310.377C457.625 309.459 457.983 308.575 458.626 307.919C458.945 307.595 459.324 307.337 459.743 307.159C460.162 306.982 460.611 306.889 461.066 306.884C461.52 306.881 461.971 306.966 462.393 307.137C462.814 307.307 463.198 307.559 463.522 307.878C463.847 308.197 464.105 308.576 464.282 308.995C464.46 309.414 464.553 309.863 464.557 310.318C464.561 310.773 464.475 311.224 464.305 311.646C464.135 312.067 463.883 312.451 463.564 312.775ZM447.639 290.979C450.789 295.105 454.215 299.35 456.689 303.919C457.287 305.019 455.703 306.634 454.591 306.048C451.157 304.187 447.852 302.097 444.698 299.793C442.366 298.167 437.967 296.14 437.118 293.108C436.347 290.405 438.869 287.421 441.362 286.703C444.423 285.83 446.049 288.958 447.639 290.979Z" fill="#574FA0"/>
<path d="M526.702 93.861C529.061 90.9583 530.506 87.4206 530.855 83.6963C531.204 79.9719 530.442 76.2273 528.664 72.9365C526.885 69.6457 524.172 66.9566 520.866 65.208C517.56 63.4601 513.81 62.7317 510.09 63.1156C506.371 63.4995 502.848 64.9784 499.968 67.3644C497.089 69.751 494.981 72.9377 493.912 76.5227C492.842 80.1071 492.86 83.9283 493.961 87.5031C495.063 91.0779 497.2 94.2455 500.101 96.6058C502.028 98.1732 504.244 99.3452 506.624 100.056C509.004 100.766 511.5 101.001 513.97 100.745C516.44 100.49 518.836 99.7513 521.021 98.5702C523.205 97.3886 525.136 95.789 526.702 93.861ZM500.896 72.8773C501.125 72.5951 501.407 72.3612 501.726 72.1884C502.046 72.0156 502.396 71.9074 502.757 71.8697C503.118 71.832 503.483 71.8661 503.831 71.9702C504.179 72.0736 504.503 72.2446 504.785 72.4737C505.067 72.7027 505.301 72.985 505.473 73.3043C505.646 73.6236 505.754 73.974 505.792 74.3352C505.83 74.6964 505.796 75.0612 505.692 75.4092C505.588 75.7573 505.417 76.0814 505.188 76.3636C504.726 76.9329 504.057 77.2953 503.327 77.3713C502.598 77.4466 501.869 77.2295 501.3 76.7673C500.731 76.305 500.368 75.6353 500.292 74.9057C500.217 74.1762 500.434 73.4466 500.896 72.8773ZM515.201 89.0232C512.386 85.9794 509.355 82.8818 507.029 79.4134C506.467 78.5822 507.627 77.1829 508.536 77.5656C511.415 78.7933 514.209 80.2117 516.899 81.8114C518.871 82.9296 522.524 84.2034 523.427 86.5595C524.24 88.6465 522.458 91.2119 520.527 91.9415C518.142 92.8624 516.612 90.5003 515.201 88.9873V89.0232Z" fill="#574FA0"/>
<path d="M338.759 218.567C345.43 229.929 345.125 238.02 343.391 251.134C342.698 256.128 348.072 259.506 352.43 256.995C390.933 234.869 426.872 252.366 472.781 241.518C489.639 237.56 510.656 229.355 525.063 216.163C529.844 209.063 532.398 200.697 532.398 192.136C532.398 156.256 483.38 127.128 422.926 127.128C384.184 127.128 350.146 139.088 330.689 157.105C330.689 157.105 330.688 157.105 330.634 157.159C325.696 164.556 322.982 172.641 322.982 181.079C322.953 193.954 332.524 207.911 338.759 218.567Z" fill="#DDDCEC"/>
<path d="M323.127 181.079C323.127 181.378 323.127 181.677 323.127 181.988C323.342 194.546 329.643 206.249 337.103 216.373C342.101 223.142 348.031 230.665 346.626 238.965C346.028 242.625 343.966 245.944 343.452 249.615C342.937 253.287 344.892 257.868 348.598 258.059C350.954 258.179 352.956 256.504 354.821 255.069C365.85 246.518 380.185 243.318 394.126 242.756C408.066 242.194 421.988 244.036 435.935 244.431C456.044 245.029 476.47 242.493 495.043 234.779C511.686 227.878 526.935 216.552 536.948 201.423C546.787 186.569 540.971 164.999 530.474 152.082C520.634 139.961 506.377 132.205 491.755 126.739C452.427 112.052 407.54 112.387 368.756 128.479C357.242 133.263 346.106 139.482 337.474 148.482C329.063 157.249 323.217 168.934 323.127 181.079Z" stroke="black" stroke-width="4" stroke-miterlimit="10"/>
<path d="M484.493 195.371C492.832 195.371 499.592 188.608 499.592 180.266C499.592 171.923 492.832 165.16 484.493 165.16C476.153 165.16 469.393 171.923 469.393 180.266C469.393 188.608 476.153 195.371 484.493 195.371Z" fill="white"/>
<path d="M435.652 195.371C443.991 195.371 450.752 188.608 450.752 180.266C450.752 171.923 443.991 165.16 435.652 165.16C427.312 165.16 420.552 171.923 420.552 180.266C420.552 188.608 427.312 195.371 435.652 195.371Z" fill="white"/>
<path d="M385.863 195.371C394.202 195.371 400.963 188.608 400.963 180.266C400.963 171.923 394.202 165.16 385.863 165.16C377.523 165.16 370.763 171.923 370.763 180.266C370.763 188.608 377.523 195.371 385.863 195.371Z" fill="white"/>
</svg>
